<?xml version="1.0" standalone="no"?>
<!DOCTYPE svg PUBLIC "-//W3C//DTD SVG 20010904//EN"
 "http://www.w3.org/TR/2001/REC-SVG-20010904/DTD/svg10.dtd">
<svg version="1.0" xmlns="http://www.w3.org/2000/svg"
 width="443.000000pt" height="106.000000pt" viewBox="0 0 443.000000 106.000000"
 preserveAspectRatio="xMidYMid meet">

<g transform="translate(0.000000,106.000000) scale(0.100000,-0.100000)"
fill="#000000" stroke="none">
<path d="M329 785 c-4 -27 -1 -84 5 -94 5 -7 20 -12 34 -11 46 3 62 0 62 -11
0 -7 -11 -9 -26 -6 -28 5 -78 -15 -67 -27 4 -4 1 -11 -7 -16 -12 -8 -13 -13
-3 -29 7 -11 9 -22 4 -25 -9 -6 -7 -129 4 -161 5 -16 0 -24 -20 -35 -34 -18
-15 -30 50 -30 46 -1 49 -2 31 -15 -19 -14 -18 -15 17 -15 67 0 39 -20 -30
-22 -49 -1 -56 -3 -25 -5 51 -5 56 -23 6 -23 -28 0 -35 -3 -30 -15 3 -8 -2
-19 -12 -24 -15 -9 -15 -11 7 -30 l24 -21 -46 0 c-26 0 -47 -4 -47 -10 0 -6
92 -10 255 -10 163 0 255 4 255 10 0 6 26 10 58 11 31 0 50 3 42 6 -8 4 -21
12 -28 20 -11 11 -11 14 3 19 9 4 14 13 11 20 -3 8 1 14 9 14 8 0 15 -4 15 -9
0 -6 14 -11 32 -13 27 -2 32 -7 33 -28 1 -50 0 -50 261 -50 l244 0 10 26 c18
46 13 54 -31 54 -24 0 -38 4 -34 10 4 6 -13 10 -44 10 -28 0 -51 5 -51 10 0 6
43 10 110 10 61 0 110 -4 110 -9 0 -5 -6 -11 -12 -13 -9 -3 -7 -10 6 -24 19
-18 19 -19 -5 -25 -16 -5 -18 -7 -6 -8 9 -1 17 -5 17 -11 0 -5 -8 -10 -17 -11
-15 0 -15 -2 2 -9 29 -12 198 -12 190 0 -3 6 5 10 19 10 35 0 42 18 9 23 -25
4 -25 4 6 6 28 1 32 3 21 16 -7 8 -19 15 -26 15 -8 0 -14 5 -14 10 0 6 5 10
10 10 24 0 7 20 -17 21 -26 2 -27 2 -4 6 27 5 51 25 51 42 0 6 -15 11 -32 12
-30 1 -31 2 -8 8 24 7 42 41 21 41 -6 0 -11 5 -11 10 0 6 7 10 15 10 8 0 15
-7 15 -16 0 -9 9 -18 20 -21 15 -4 17 -9 10 -23 -8 -15 -4 -20 28 -28 34 -9
34 -10 9 -11 -30 -1 -28 -21 1 -21 13 0 17 -8 16 -27 -1 -33 14 -41 73 -42 23
-1 45 -5 48 -11 3 -5 1 -10 -5 -10 -6 0 -8 -5 -5 -10 4 -6 -6 -10 -22 -10 -22
0 -25 -2 -13 -10 21 -14 163 -13 178 2 9 9 24 8 64 -1 29 -7 91 -11 138 -9 75
3 86 5 95 24 26 52 32 54 141 54 63 0 104 -4 104 -10 0 -5 -8 -10 -17 -10 -14
0 -15 -2 -4 -9 8 -5 10 -14 6 -21 -13 -21 17 -30 110 -30 78 0 93 3 107 20 16
18 16 20 0 29 -15 9 -14 10 7 11 19 0 21 3 11 15 -6 8 -21 17 -33 21 -30 9
-55 36 -39 42 9 3 8 8 -4 19 -20 21 -15 68 9 67 110 -5 130 -7 115 -11 -15 -4
-15 -8 -5 -24 8 -14 9 -22 1 -27 -13 -9 -24 -38 -17 -46 3 -3 6 -26 7 -52 1
-33 6 -48 19 -56 12 -6 88 -8 200 -6 159 3 188 6 227 24 40 19 125 94 106 94
-4 0 5 16 20 35 30 39 27 42 -46 48 -42 3 -41 4 12 5 73 3 92 10 77 28 -6 8
-18 14 -25 14 -35 0 -3 45 37 53 23 4 22 4 -3 6 -25 1 -30 6 -27 27 0 4 -11
14 -25 24 -33 21 -24 30 28 31 35 0 38 2 19 9 -23 10 -32 30 -12 30 5 0 7 4 4
10 -3 5 -22 10 -41 10 -21 0 -33 4 -29 10 3 6 31 10 60 10 47 0 57 -3 71 -25
11 -17 25 -25 44 -25 15 0 33 -6 39 -14 15 -17 4 -46 -18 -46 -12 0 -13 -2 -3
-8 14 -9 6 -42 -12 -54 -7 -5 -4 -8 7 -8 26 0 21 -17 -8 -24 -14 -4 -25 -11
-25 -16 0 -6 11 -10 25 -10 14 0 25 -4 25 -10 0 -5 -11 -10 -23 -10 -36 0 -81
-62 -54 -74 7 -2 4 -5 -5 -5 -22 -1 -24 -37 -3 -49 13 -7 12 -12 -10 -32 -51
-48 -28 -60 110 -59 l90 0 27 39 28 40 105 0 c63 0 105 -4 105 -10 0 -5 -8
-10 -17 -10 -14 0 -15 -2 -4 -9 8 -5 10 -14 6 -21 -13 -22 18 -30 116 -30 84
0 98 3 115 21 16 17 16 22 4 29 -12 8 -11 10 5 10 19 1 19 2 -4 20 -13 11 -30
20 -38 20 -8 0 -11 5 -8 10 3 6 1 10 -5 10 -7 0 -10 7 -6 15 3 8 0 15 -7 15
-7 0 -12 11 -11 28 2 46 4 53 12 48 4 -2 14 -1 22 5 11 6 4 9 -22 9 -20 0 -40
5 -43 10 -3 6 2 10 12 10 13 0 15 2 5 9 -7 4 -12 12 -11 17 5 15 -12 54 -22
54 -5 0 -9 7 -9 15 0 8 -5 15 -10 15 -7 0 -7 6 0 19 5 11 10 22 10 25 0 3 -37
6 -82 7 -50 1 -73 4 -58 8 18 5 21 9 12 15 -20 12 31 36 82 38 38 1 39 2 8 5
-31 4 -33 5 -15 18 17 14 17 14 -6 15 -20 0 -22 2 -10 16 11 14 10 18 -6 30
-17 13 -15 14 24 14 25 0 40 4 36 10 -3 5 -17 10 -31 10 -16 0 -23 4 -18 11
13 21 -22 29 -137 29 -90 0 -119 -3 -135 -16 -13 -11 -15 -17 -6 -20 25 -11
11 -24 -28 -24 -32 0 -38 -3 -33 -16 3 -9 0 -20 -8 -25 -12 -8 -12 -10 1 -18
12 -8 11 -11 -5 -17 -18 -7 -18 -8 1 -15 13 -5 4 -8 -28 -8 -26 -1 -50 -5 -53
-11 -3 -5 -14 -10 -23 -10 -16 1 -16 2 1 14 9 7 17 16 17 20 0 3 -41 6 -91 6
-82 0 -90 2 -78 16 8 9 26 15 48 13 20 -1 59 -1 86 0 96 4 15 20 -107 20 -100
1 -117 3 -112 16 4 8 18 15 32 15 38 0 16 14 -61 38 -58 19 -91 22 -236 22
-145 0 -170 -2 -182 -17 -11 -13 -11 -17 -1 -20 19 -7 3 -23 -23 -23 -13 0
-30 -3 -39 -6 -39 -15 -7 -24 99 -26 141 -4 155 -22 20 -26 -115 -3 -128 -22
-15 -22 47 0 80 -4 80 -10 0 -5 -7 -10 -15 -10 -8 0 -15 -5 -15 -11 0 -8 -21
-10 -70 -5 -42 4 -70 3 -70 -2 0 -5 9 -12 20 -15 27 -7 25 -23 -2 -32 -19 -7
-16 -9 22 -15 l45 -7 -52 -1 c-29 -1 -53 -6 -53 -12 0 -5 9 -10 19 -10 11 0
23 -5 26 -10 3 -6 22 -10 41 -10 19 0 34 -3 34 -6 0 -10 -53 -53 -72 -60 -10
-3 -18 -10 -18 -15 0 -5 -9 -9 -19 -9 -11 0 -23 -4 -26 -10 -3 -5 -18 -10 -32
-10 -18 0 -24 4 -19 15 3 8 1 15 -5 15 -6 0 -9 6 -6 14 3 8 -3 26 -14 39 -10
14 -19 30 -19 35 0 6 -6 12 -12 15 -10 3 -10 9 0 26 12 21 11 21 -65 22 -43 1
-70 3 -60 6 20 5 23 23 5 23 -31 1 59 30 96 31 23 1 31 4 19 6 -25 5 -30 18
-10 26 6 3 -1 6 -17 6 -24 1 -27 3 -16 16 10 12 10 18 1 29 -10 12 -6 15 26
18 l38 4 -35 11 c-19 6 -29 12 -21 12 11 1 11 4 1 16 -10 12 -38 15 -132 15
-113 0 -158 -9 -158 -30 0 -6 7 -10 16 -10 8 0 12 -4 9 -10 -3 -5 -24 -10 -45
-10 -32 0 -38 -3 -33 -16 3 -9 0 -20 -8 -26 -11 -7 -11 -11 -1 -15 18 -7 15
-23 -5 -24 -15 0 -15 -2 2 -9 16 -7 11 -9 -21 -9 -80 -2 -130 -52 -57 -59 17
-2 36 -9 42 -16 12 -15 5 -46 -11 -46 -5 0 -7 -4 -4 -9 4 -5 2 -21 -4 -35 -6
-17 -6 -26 0 -26 20 0 9 -18 -15 -24 -32 -8 -32 -26 0 -26 14 0 25 -4 25 -10
0 -5 -11 -10 -23 -10 -36 0 -81 -62 -54 -74 7 -2 4 -5 -5 -5 -22 -1 -25 -41
-3 -41 18 0 19 -12 3 -28 -14 -14 -108 -16 -108 -3 0 5 6 11 13 14 8 3 6 7 -7
12 -16 7 -15 9 10 21 26 11 27 12 7 13 -33 1 -28 21 5 22 15 0 20 3 12 6 -8 2
-22 7 -30 10 -12 4 -12 7 4 19 11 8 14 14 7 14 -7 0 -9 5 -6 11 14 22 -5 57
-35 64 -46 10 -36 25 18 27 36 1 39 2 15 5 -33 4 -47 23 -17 23 15 0 44 23 44
34 0 3 -16 6 -35 6 -45 0 -44 12 3 35 20 10 31 20 24 22 -6 3 -10 9 -6 14 3 5
0 9 -5 9 -20 0 -11 27 12 38 l22 11 -22 0 c-34 1 -28 21 10 28 l32 7 -35 7
-35 6 35 16 35 16 -40 2 c-22 1 -31 3 -20 6 11 2 30 6 43 9 70 15 -52 45 -179
43 -71 -1 -80 -3 -56 -12 40 -16 34 -37 -10 -38 l-38 -2 35 -6 35 -7 -27 -7
c-37 -10 -36 -27 2 -27 17 0 30 -4 30 -10 0 -5 -11 -10 -25 -10 -31 0 -33 -20
-2 -21 l22 0 -22 -11 c-26 -13 -38 -38 -18 -38 21 0 19 -39 -2 -47 -10 -4 -21
-11 -25 -17 -5 -7 -8 -6 -8 3 0 8 8 20 18 27 15 12 15 13 -10 14 -39 0 -61 42
-30 56 14 5 12 8 -8 14 -14 4 -24 12 -23 18 2 7 -7 12 -20 13 -12 0 -16 3 -9
6 18 7 4 23 -21 23 -18 0 -19 2 -7 10 11 7 3 10 -30 10 -25 0 -52 5 -60 10
-12 8 -9 10 13 10 15 0 27 5 27 10 0 6 12 10 28 11 24 0 25 1 7 9 -29 12 -198
12 -190 0 4 -6 -6 -10 -24 -10 -16 0 -32 -4 -36 -9 -3 -5 -17 -8 -30 -5 -27 5
-34 -10 -9 -20 9 -3 30 -6 47 -6 24 0 28 -3 17 -10 -12 -8 -11 -10 8 -10 26 0
30 -20 5 -21 -17 0 -17 -1 0 -8 10 -4 18 -11 17 -16 -1 -5 7 -12 17 -16 10 -4
13 -8 7 -8 -6 -1 -21 -10 -34 -21 l-22 -19 27 -13 26 -12 -22 -17 c-23 -17
-19 -39 7 -39 24 0 15 -18 -16 -32 -37 -16 -38 -25 -2 -31 17 -2 8 -5 -23 -6
l-50 -3 35 -12 c20 -7 37 -21 39 -32 2 -10 13 -27 24 -36 20 -18 20 -18 -3
-18 -22 0 -23 -1 -5 -20 10 -11 16 -22 13 -25 -10 -10 -99 -22 -104 -14 -3 5
-32 9 -65 9 -33 0 -59 4 -59 10 0 6 28 10 63 11 100 1 37 17 -70 18 -55 1 -93
5 -93 11 0 6 -17 11 -37 11 -31 2 -33 3 -10 6 15 2 27 9 27 14 0 6 -4 7 -10 4
-5 -3 -10 1 -10 9 0 12 10 16 39 16 22 0 42 4 45 9 7 11 -213 25 -294 19 -53
-4 -53 -4 15 -6 62 -2 67 -3 50 -16 -11 -7 -35 -17 -52 -21 -18 -3 -33 -10
-33 -15 0 -5 -8 -11 -17 -13 -10 -3 -1 -5 20 -6 65 -2 40 -19 -40 -27 -97 -9
-367 2 -391 15 -15 9 -15 10 5 11 12 0 23 6 25 13 3 9 44 13 146 15 99 3 142
7 143 15 7 78 -5 143 -29 149 -9 2 -70 3 -134 3 -108 0 -138 5 -105 18 7 3 5
6 -5 6 -10 1 -18 8 -18 16 0 13 22 15 138 16 141 1 189 8 185 26 -3 13 52 37
70 30 8 -3 12 -21 11 -51 -2 -44 -1 -46 27 -46 16 0 29 -4 29 -9 0 -5 10 -12
23 -14 12 -2 -12 -6 -53 -7 -41 -1 -65 -5 -52 -7 25 -5 30 -23 7 -23 -8 0 -15
-3 -15 -8 0 -15 58 -30 145 -37 50 -3 94 -11 100 -16 11 -11 225 -12 225 0 0
8 -94 21 -161 21 -22 0 -39 5 -39 10 0 6 -9 10 -20 10 -11 0 -20 5 -20 10 0 6
9 10 20 10 30 0 24 18 -7 23 -16 2 6 5 47 6 64 2 71 4 50 13 -14 6 -33 12 -42
13 -10 2 -24 3 -30 4 -9 1 -7 6 4 15 10 7 14 16 10 20 -4 4 -7 24 -7 44 0 36
-1 37 -45 43 -36 5 -41 8 -23 14 29 10 18 35 -16 35 -49 0 1 20 54 21 49 1 49
1 15 10 -58 14 -267 23 -255 11 6 -6 21 -12 35 -15 14 -2 -4 -5 -39 -6 -61 -1
-75 11 -26 22 11 2 -109 5 -267 6 -159 1 -288 -1 -289 -4z m571 -60 c0 -8 -9
-15 -20 -15 -12 0 -20 -7 -20 -17 0 -13 -3 -14 -12 -5 -8 8 -8 15 0 25 7 8 9
17 5 20 -3 4 6 7 20 7 17 0 27 -5 27 -15z m33 -42 c-7 -2 -19 -2 -25 0 -7 3
-2 5 12 5 14 0 19 -2 13 -5z m2267 -81 c45 -6 54 -10 52 -25 -2 -10 6 -21 20
-27 20 -7 17 -9 -19 -9 -47 -1 -53 -9 -23 -31 11 -8 20 -20 20 -27 0 -7 11
-13 24 -13 14 0 28 -5 31 -10 6 -10 -1 -14 -47 -24 -36 -8 -36 -32 -1 -41 27
-6 27 -7 9 -21 -11 -8 -45 -15 -75 -16 -50 -1 -52 -2 -13 -5 61 -6 52 -25 -10
-21 -43 2 -53 6 -52 21 2 14 -6 17 -41 17 -28 0 -45 5 -48 14 -7 18 1 26 25
26 10 0 18 5 18 10 0 6 6 10 13 10 8 0 24 11 37 25 13 14 31 25 39 25 14 0 14
1 1 10 -8 5 -27 10 -42 10 -16 0 -28 5 -28 10 0 6 -12 10 -27 10 -43 0 -16 14
40 21 52 6 52 6 10 8 -42 1 -63 21 -23 21 26 0 15 27 -13 33 -35 7 63 6 123
-1z m-699 -46 c-9 -10 -6 -24 11 -57 13 -24 28 -48 33 -52 6 -6 5 -10 -4 -14
-11 -5 -11 -7 0 -14 9 -5 -11 -8 -51 -8 -36 1 -57 3 -47 6 16 4 25 24 10 22
-19 -3 -27 2 -16 9 7 4 14 19 15 32 2 14 9 30 17 36 8 6 12 18 8 27 -7 18 0
27 21 27 11 0 12 -3 3 -14z m1370 0 c-9 -10 -6 -24 11 -57 13 -24 26 -45 31
-47 4 -2 7 -8 7 -13 0 -6 -4 -7 -10 -4 -5 3 -10 2 -10 -4 0 -5 6 -12 13 -14 6
-3 -17 -5 -53 -5 -36 0 -57 2 -47 5 9 2 17 9 17 14 0 6 -4 8 -9 4 -5 -3 -12
-1 -16 5 -3 5 -2 10 3 10 8 0 15 13 26 50 1 3 5 11 9 18 5 7 5 21 2 32 -5 16
-2 20 16 20 17 0 19 -3 10 -14z m-2858 -253 c-7 -2 -19 -2 -25 0 -7 3 -2 5 12
5 14 0 19 -2 13 -5z m6 -19 c14 -12 -18 -15 -94 -9 -55 5 -82 11 -74 16 13 8
158 1 168 -7z"/>
<path d="M1458 303 c6 -2 18 -2 25 0 6 3 1 5 -13 5 -14 0 -19 -2 -12 -5z"/>
</g>
</svg>
