<?xml version="1.0" encoding="utf-8"?>
<!DOCTYPE svg PUBLIC "-//W3C//DTD SVG 20010904//EN" "http://www.w3.org/TR/2001/REC-SVG-20010904/DTD/svg10.dtd">
<svg version="1.0" xmlns="http://www.w3.org/2000/svg" width="445pt" height="98pt" viewBox="0 0 445 98" style="" preserveAspectRatio="xMidYMid meet">
<g fill="#FEFEFEFE" stroke="#FEFEFEFE">
<path d="M 35.000 25.059 C 35.000 28.505 35.353 29.900 36.108 29.433 C 36.794 29.009 36.980 27.276 36.596 24.874 C 35.999 21.139 36.076 21.005 38.738 21.136 C 40.688 21.232 40.912 21.390 39.500 21.674 C 37.832 22.009 37.507 22.857 37.543 26.788 C 37.587 31.463 37.614 31.501 41.043 31.622 C 46.409 31.811 47.000 31.937 47.000 32.891 C 47.000 33.380 45.425 33.965 43.500 34.190 C 41.575 34.415 40.000 34.253 40.000 33.831 C 40.000 33.410 38.988 33.471 37.750 33.969 C 36.026 34.662 35.909 34.888 37.250 34.937 C 39.167 35.006 39.636 37.489 37.932 38.542 C 37.344 38.905 37.091 39.795 37.369 40.518 C 37.646 41.242 37.227 42.083 36.437 42.386 C 35.647 42.689 35.029 43.964 35.063 45.219 L 35.127 47.500 36.085 45.105 C 36.612 43.787 37.271 42.938 37.549 43.216 C 37.828 43.495 37.595 44.936 37.031 46.418 C 36.457 47.928 36.414 48.862 36.934 48.541 C 38.444 47.608 39.176 49.802 38.054 51.899 C 36.519 54.767 37.865 62.981 39.886 63.076 C 40.774 63.118 39.925 63.759 38.000 64.500 L 34.500 65.848 39.857 65.924 C 44.189 65.985 45.104 66.287 44.638 67.500 C 44.223 68.584 44.748 69.000 46.531 69.000 C 47.889 69.000 49.000 69.450 49.000 70.000 C 49.000 70.550 46.188 71.076 42.750 71.168 C 38.554 71.281 37.732 71.465 40.250 71.728 C 44.705 72.194 45.152 73.520 41.126 74.325 C 37.727 75.005 36.316 79.186 38.792 81.244 C 40.032 82.274 39.197 82.441 34.152 82.171 C 30.743 81.988 28.000 82.261 28.000 82.782 C 28.000 83.299 29.238 83.525 30.750 83.283 C 32.900 82.939 33.172 83.076 32.000 83.906 C 30.923 84.669 37.316 84.974 54.643 84.985 C 76.033 84.998 78.857 84.814 79.411 83.372 C 79.872 82.171 80.883 81.876 83.268 82.247 C 85.045 82.523 87.343 82.443 88.373 82.069 C 90.087 81.445 90.111 81.253 88.648 79.791 C 87.278 78.421 87.258 78.115 88.509 77.635 C 89.332 77.319 89.709 76.406 89.376 75.538 C 88.915 74.335 89.518 74.015 92.143 74.070 C 94.928 74.129 95.159 74.287 93.500 75.000 C 91.789 75.735 91.941 75.870 94.550 75.930 C 98.471 76.020 99.830 77.438 99.192 80.774 C 98.732 83.184 98.607 83.252 97.911 81.472 C 97.270 79.831 97.129 79.788 97.070 81.215 C 97.032 82.158 97.870 83.395 98.934 83.965 C 101.694 85.442 145.170 85.329 150.166 83.832 C 153.138 82.942 154.342 82.942 155.232 83.832 C 157.027 85.627 171.495 85.362 173.357 83.500 C 174.182 82.675 175.677 81.993 176.679 81.985 C 178.220 81.972 178.270 81.821 177.000 81.000 C 176.051 80.387 175.948 80.025 176.719 80.015 C 178.100 79.998 177.273 76.929 175.573 75.765 C 174.873 75.286 174.973 75.025 175.861 75.015 C 176.686 75.006 176.326 74.275 174.947 73.158 L 172.672 71.316 175.880 70.674 C 178.627 70.125 178.945 69.766 178.095 68.178 C 177.549 67.158 177.357 65.351 177.668 64.162 C 177.998 62.899 177.769 62.000 177.117 62.000 C 176.502 62.000 176.000 61.550 176.000 61.000 C 176.000 60.450 176.675 60.000 177.500 60.000 C 178.325 60.000 179.000 60.689 179.000 61.531 C 179.000 62.374 179.711 63.336 180.581 63.669 C 181.529 64.033 181.966 65.021 181.674 66.138 C 181.363 67.328 181.716 68.000 182.653 68.000 C 183.459 68.000 183.829 68.468 183.475 69.040 C 183.058 69.715 183.741 69.852 185.416 69.432 C 187.900 68.808 187.999 68.952 187.985 73.142 C 187.975 75.963 187.666 77.022 187.110 76.143 C 186.581 75.309 186.012 75.172 185.631 75.788 C 184.763 77.193 187.365 77.997 192.832 78.015 C 195.399 78.024 198.175 78.467 199.000 79.000 C 199.949 79.613 200.052 79.975 199.281 79.985 C 198.611 79.993 198.288 80.586 198.563 81.303 C 198.929 82.257 198.049 82.537 195.281 82.350 C 193.202 82.209 192.400 82.341 193.500 82.644 C 194.600 82.946 195.928 83.600 196.450 84.097 C 198.011 85.581 210.309 85.172 212.610 83.560 C 214.382 82.320 215.207 82.313 218.583 83.516 C 222.672 84.974 241.091 85.579 240.882 84.250 C 240.553 82.171 241.121 80.957 242.130 81.580 C 242.817 82.005 243.074 81.734 242.786 80.889 C 242.526 80.125 243.211 78.713 244.310 77.750 C 247.111 75.295 264.739 75.157 265.671 77.584 C 266.160 78.859 266.443 78.908 267.124 77.834 C 267.634 77.030 267.975 76.948 267.985 77.628 C 267.993 78.248 267.256 79.373 266.346 80.128 C 265.066 81.190 265.010 81.503 266.096 81.515 C 267.265 81.528 267.273 81.675 266.143 82.390 C 263.513 84.057 267.257 84.969 276.798 84.985 L 286.097 85.000 287.441 81.802 C 288.991 78.116 288.508 76.000 286.115 76.000 C 283.937 76.000 280.708 72.203 281.385 70.438 C 281.675 69.682 281.482 68.798 280.956 68.473 C 280.430 68.148 280.000 66.502 280.000 64.816 C 280.000 61.915 280.169 61.784 283.125 62.375 C 284.844 62.719 288.309 63.000 290.825 63.000 C 294.280 63.000 295.118 63.282 294.247 64.153 C 293.484 64.916 293.410 65.898 294.028 67.053 C 294.701 68.309 294.553 68.957 293.504 69.360 C 292.363 69.798 292.141 71.372 292.486 76.590 C 292.729 80.259 293.205 83.539 293.544 83.880 C 293.883 84.221 300.987 84.653 309.331 84.839 C 329.824 85.297 337.900 83.454 344.250 76.870 C 345.763 75.301 347.000 73.339 347.000 72.509 C 347.000 71.679 347.450 71.000 348.000 71.000 C 348.550 71.000 349.000 70.373 349.000 69.607 C 349.000 68.841 349.788 67.909 350.750 67.536 C 353.757 66.370 349.190 63.860 344.500 64.101 C 341.882 64.235 341.118 64.038 342.288 63.531 C 343.272 63.105 345.747 63.022 347.788 63.347 C 349.830 63.671 352.175 63.498 353.000 62.961 C 354.270 62.135 354.124 61.694 352.049 60.087 C 350.000 58.500 349.807 57.937 350.872 56.654 C 351.573 55.809 353.351 54.934 354.823 54.709 L 357.500 54.300 354.750 54.150 C 353.238 54.067 352.000 53.585 352.000 53.077 C 352.000 52.569 350.835 50.769 349.411 49.077 L 346.822 46.000 351.661 45.985 C 354.993 45.974 356.048 45.683 355.048 45.051 C 354.249 44.545 353.268 44.335 352.867 44.582 C 352.466 44.830 351.824 44.525 351.441 43.905 C 351.058 43.284 351.364 42.384 352.122 41.904 C 353.051 41.315 352.290 41.026 349.781 41.015 C 346.890 41.003 346.191 40.666 346.638 39.500 C 347.050 38.426 348.729 38.000 352.548 38.000 C 355.482 38.000 358.160 37.550 358.500 37.000 C 358.840 36.450 360.104 36.014 361.309 36.032 C 363.235 36.060 363.308 36.211 361.912 37.282 C 361.039 37.952 360.550 39.175 360.825 40.000 C 361.254 41.286 361.088 41.304 359.663 40.128 C 358.640 39.284 358.000 39.174 358.000 39.842 C 358.000 41.353 361.188 42.906 364.863 43.186 C 366.559 43.316 368.170 44.002 368.442 44.711 C 369.025 46.228 368.114 49.000 367.034 49.000 C 366.620 49.000 366.368 51.067 366.473 53.594 C 366.631 57.381 366.312 58.319 364.656 58.931 C 362.696 59.657 362.700 59.688 364.824 60.244 C 367.472 60.936 367.720 63.000 365.155 63.000 C 362.642 63.000 359.641 66.518 360.230 68.773 C 360.623 70.276 360.230 70.541 358.070 70.224 C 355.936 69.910 355.429 70.236 355.429 71.918 C 355.429 73.063 355.782 74.000 356.214 74.000 C 356.646 74.000 357.000 73.325 357.000 72.500 C 357.000 71.675 357.436 71.000 357.969 71.000 C 358.501 71.000 358.680 71.671 358.365 72.492 C 358.038 73.343 358.481 74.247 359.396 74.599 C 361.576 75.435 361.424 76.251 358.500 79.405 C 357.125 80.889 356.000 82.477 356.000 82.935 C 356.000 84.335 360.096 84.972 369.184 84.986 L 377.867 85.000 378.184 82.250 C 378.358 80.738 379.099 79.500 379.831 79.500 C 380.562 79.500 381.737 78.713 382.441 77.750 C 384.219 75.319 403.291 75.079 402.362 77.500 C 402.045 78.325 402.284 79.000 402.893 79.000 C 403.502 79.000 404.000 78.475 404.000 77.833 C 404.000 77.192 404.289 76.956 404.643 77.309 C 404.996 77.663 404.876 78.525 404.377 79.226 C 403.877 79.927 403.476 81.400 403.484 82.500 C 403.499 84.359 404.268 84.520 414.370 84.785 C 423.805 85.032 425.163 84.867 424.652 83.535 C 424.287 82.584 424.622 82.000 425.531 82.000 C 427.323 82.000 427.476 80.359 425.750 79.662 C 425.047 79.378 425.319 79.123 426.372 79.079 C 427.922 79.014 428.030 78.741 427.000 77.500 C 426.315 76.675 425.235 76.000 424.600 76.000 C 422.920 76.000 420.406 72.754 419.601 69.545 C 419.217 68.015 418.590 67.076 418.209 67.458 C 417.827 67.839 417.512 67.330 417.508 66.326 C 417.497 63.858 419.714 61.676 421.526 62.371 C 422.337 62.683 423.000 62.501 423.000 61.969 C 423.000 61.436 421.602 61.000 419.893 61.000 C 417.542 61.000 416.926 60.635 417.362 59.500 C 417.678 58.675 417.501 58.000 416.969 58.000 C 416.436 58.000 416.000 56.875 416.000 55.500 C 416.000 54.125 415.523 53.000 414.941 53.000 C 414.359 53.000 414.160 52.550 414.500 52.000 C 414.840 51.450 414.165 51.000 413.000 51.000 C 411.701 51.000 411.148 50.570 411.569 49.888 C 411.947 49.277 411.636 48.384 410.878 47.904 C 409.928 47.302 409.878 47.026 410.719 47.015 C 411.443 47.006 411.678 46.325 411.299 45.336 C 410.869 44.217 411.043 43.909 411.830 44.395 C 412.474 44.793 413.000 44.641 413.000 44.059 C 413.000 43.409 409.817 42.955 404.750 42.884 C 400.213 42.820 397.311 42.558 398.303 42.300 C 399.689 41.941 399.848 41.521 398.989 40.486 C 398.130 39.452 398.335 38.891 399.870 38.070 C 400.969 37.481 402.784 37.000 403.903 37.000 C 405.300 37.000 405.757 36.530 405.362 35.500 C 404.983 34.514 405.394 34.000 406.560 34.000 C 408.719 34.000 407.869 32.951 405.419 32.591 C 404.233 32.417 404.040 32.093 404.830 31.605 C 405.673 31.084 405.712 30.330 404.968 28.939 C 404.051 27.226 404.284 26.985 406.965 26.875 C 411.854 26.674 412.625 26.378 410.500 25.519 C 409.400 25.074 407.739 23.763 406.809 22.605 C 405.277 20.697 403.916 20.470 392.282 20.175 C 380.338 19.873 379.315 19.994 377.568 21.925 C 375.436 24.281 377.056 24.801 379.357 22.500 C 381.197 20.660 382.660 20.500 381.164 22.302 C 380.570 23.018 380.342 24.593 380.658 25.802 C 381.038 27.252 380.768 28.036 379.867 28.106 C 379.115 28.165 377.600 28.277 376.500 28.356 C 374.883 28.472 374.440 29.330 374.188 32.835 L 373.877 37.171 368.688 36.461 C 365.835 36.071 362.458 35.357 361.185 34.876 C 359.912 34.394 356.762 34.064 354.185 34.142 L 349.500 34.284 353.500 35.000 L 357.500 35.716 353.500 35.758 C 346.135 35.836 343.084 33.600 348.000 31.729 C 348.825 31.415 347.105 31.122 344.179 31.079 C 340.868 31.030 338.289 30.432 337.354 29.497 C 335.755 27.898 336.095 27.597 340.500 26.718 C 342.009 26.417 341.272 25.764 337.500 24.059 C 334.750 22.816 331.375 21.795 330.000 21.789 C 328.625 21.784 326.990 21.368 326.368 20.865 C 325.745 20.362 317.651 20.074 308.381 20.225 C 292.430 20.485 291.505 20.607 291.147 22.500 C 290.783 24.416 290.849 24.427 292.713 22.750 C 293.782 21.788 295.072 21.014 295.579 21.030 C 296.085 21.047 295.713 21.519 294.750 22.080 C 292.606 23.329 292.463 25.000 294.500 25.000 C 295.325 25.000 296.000 25.429 296.000 25.953 C 296.000 26.507 293.933 26.661 291.061 26.321 C 287.086 25.850 285.768 26.092 284.311 27.562 C 282.639 29.248 282.634 29.335 284.250 28.694 C 289.226 26.721 289.559 26.684 287.500 28.334 C 285.635 29.828 286.262 29.939 296.750 29.968 C 305.597 29.993 308.000 30.293 308.000 31.371 C 308.000 32.370 305.492 32.980 298.750 33.620 L 289.500 34.498 297.250 34.791 C 301.513 34.952 305.000 35.515 305.000 36.042 C 305.000 36.569 304.325 37.000 303.500 37.000 C 302.675 37.000 302.000 37.450 302.000 38.000 C 302.000 38.562 298.826 39.060 294.750 39.136 C 290.763 39.211 288.513 39.467 289.750 39.706 C 291.929 40.125 292.437 41.036 292.055 43.838 C 291.929 44.756 292.520 44.970 293.936 44.520 C 295.448 44.040 296.000 44.303 296.000 45.504 C 296.000 46.703 295.262 47.057 293.250 46.822 C 291.329 46.597 290.500 46.952 290.500 48.000 C 290.500 49.011 291.721 49.601 294.250 49.810 C 296.898 50.030 298.000 50.593 298.000 51.727 C 298.000 52.610 297.735 53.068 297.410 52.744 C 297.086 52.419 295.454 53.460 293.783 55.057 C 292.112 56.654 290.352 57.718 289.872 57.421 C 289.393 57.125 289.000 57.306 289.000 57.824 C 289.000 58.343 288.213 59.045 287.250 59.384 C 286.288 59.724 284.875 60.284 284.111 60.630 C 283.235 61.027 282.980 60.842 283.420 60.130 C 284.279 58.739 283.857 58.724 280.451 60.019 C 278.232 60.862 277.870 60.782 278.342 59.551 C 278.656 58.733 278.475 57.794 277.940 57.463 C 277.405 57.132 277.239 56.423 277.570 55.887 C 278.493 54.393 275.111 49.817 273.706 50.660 C 272.969 51.102 273.034 50.726 273.872 49.692 C 275.088 48.193 274.975 47.998 272.872 47.985 C 271.552 47.976 270.976 47.644 271.573 47.235 C 272.163 46.831 272.936 45.713 273.292 44.750 C 273.867 43.189 273.157 42.992 266.719 42.930 C 262.345 42.887 260.262 42.561 261.434 42.102 C 262.835 41.553 263.025 41.134 262.124 40.577 C 260.591 39.629 263.557 37.081 266.250 37.032 C 267.213 37.014 268.000 36.325 268.000 35.500 C 268.000 34.675 268.788 33.993 269.750 33.985 C 271.202 33.972 271.252 33.813 270.048 33.051 C 269.249 32.545 268.237 32.354 267.798 32.625 C 267.359 32.896 267.000 32.641 267.000 32.059 C 267.000 31.477 267.466 31.000 268.035 31.000 C 268.737 31.000 268.726 30.356 268.000 29.000 C 267.037 27.200 267.240 27.000 270.022 27.000 C 273.017 27.000 273.065 26.931 271.557 24.777 C 270.701 23.555 270.000 22.898 270.000 23.316 C 270.000 23.735 269.015 23.160 267.811 22.039 C 265.868 20.229 264.315 20.000 253.966 20.000 C 243.580 20.000 242.113 20.218 240.500 22.000 C 239.505 23.100 239.155 24.000 239.723 24.000 C 240.290 24.000 241.315 23.325 242.000 22.500 C 242.685 21.675 243.843 21.000 244.575 21.000 C 245.394 21.000 244.941 22.055 243.392 23.750 C 241.557 25.759 241.301 26.463 242.440 26.361 C 243.298 26.285 244.000 26.622 244.000 27.111 C 244.000 27.600 243.023 28.000 241.829 28.000 C 240.635 28.000 238.758 28.788 237.659 29.750 C 235.795 31.382 235.703 31.385 236.287 29.782 C 236.631 28.837 236.482 27.798 235.956 27.473 C 235.430 27.148 235.000 27.561 235.000 28.391 C 235.000 29.221 234.213 30.394 233.250 30.998 C 231.775 31.923 231.878 31.991 233.901 31.432 C 235.866 30.890 236.186 31.072 235.663 32.437 C 235.286 33.417 235.430 33.852 236.011 33.493 C 236.555 33.157 237.000 33.766 237.000 34.846 C 237.000 36.641 236.482 36.763 231.000 36.266 C 226.860 35.891 225.000 36.075 225.000 36.861 C 225.000 37.488 224.100 38.000 223.000 38.000 C 220.832 38.000 220.272 40.432 222.170 41.605 C 222.957 42.091 223.131 41.783 222.701 40.664 C 222.297 39.609 222.566 39.000 223.438 39.000 C 224.320 39.000 224.625 39.716 224.290 41.000 C 223.873 42.594 224.259 43.000 226.192 43.000 C 227.526 43.000 229.381 43.563 230.313 44.250 C 231.900 45.419 231.880 45.839 230.009 50.750 C 228.908 53.638 228.456 56.000 229.004 56.000 C 230.884 56.000 230.000 58.065 227.766 58.891 L 225.533 59.717 227.766 60.426 C 230.605 61.327 230.671 63.000 227.867 63.000 C 225.865 63.000 222.000 66.356 222.000 68.094 C 222.000 68.527 222.563 69.246 223.250 69.691 C 224.061 70.216 223.756 70.398 222.381 70.209 C 220.602 69.965 220.340 70.326 220.747 72.459 C 221.015 73.857 221.856 75.000 222.617 75.000 C 224.307 75.000 224.434 76.614 222.822 77.610 C 221.342 78.525 215.095 78.954 212.678 78.307 C 211.611 78.022 211.080 77.235 211.396 76.410 C 211.694 75.634 211.389 74.980 210.719 74.955 C 210.048 74.930 210.850 74.292 212.500 73.536 C 215.017 72.384 214.586 71.434 211.750 71.882 C 211.338 71.947 211.000 71.550 211.000 71.000 C 211.000 70.450 211.788 69.990 212.750 69.978 C 214.168 69.960 214.026 69.585 212.000 68.000 L 209.500 66.044 212.000 65.943 C 213.375 65.888 213.935 65.614 213.244 65.336 C 212.553 65.057 212.258 64.392 212.588 63.858 C 213.875 61.775 211.987 58.434 208.856 57.252 C 204.963 55.782 205.313 55.241 210.533 54.657 C 213.443 54.331 214.019 54.017 212.696 53.479 C 210.991 52.785 211.005 52.624 212.955 50.548 C 214.890 48.488 214.814 47.000 212.774 47.000 C 212.284 47.000 212.160 47.450 212.500 48.000 C 213.270 49.246 210.006 49.290 208.061 48.059 C 206.943 47.352 207.446 46.755 210.311 45.389 C 212.340 44.421 214.000 42.963 214.000 42.148 C 214.000 41.333 213.701 40.966 213.335 41.332 C 212.969 41.698 212.549 40.873 212.403 39.499 C 212.256 38.124 212.556 37.000 213.068 37.000 C 213.581 37.000 214.000 36.325 214.000 35.500 C 214.000 34.675 213.550 34.000 213.000 34.000 C 212.450 34.000 212.000 33.550 212.000 33.000 C 212.000 32.450 213.238 31.984 214.750 31.965 L 217.500 31.929 215.099 30.598 L 212.697 29.268 215.599 28.213 C 218.063 27.317 218.170 27.146 216.309 27.079 C 213.308 26.971 212.320 25.029 215.191 24.882 C 216.461 24.816 217.838 24.816 218.250 24.882 C 218.663 24.947 219.000 24.605 219.000 24.122 C 219.000 23.639 217.204 22.787 215.008 22.230 C 212.812 21.673 211.264 21.618 211.567 22.108 C 212.450 23.537 210.994 23.137 209.357 21.500 C 208.207 20.350 205.600 20.035 198.179 20.150 C 190.750 20.265 189.546 20.454 193.000 20.959 C 196.339 21.449 197.049 21.824 195.750 22.416 C 193.621 23.387 193.389 25.449 195.500 24.638 C 197.854 23.735 197.256 25.654 194.510 27.813 C 192.498 29.396 192.276 29.984 193.352 30.877 C 194.085 31.485 195.036 31.649 195.466 31.241 C 196.942 29.842 194.725 35.500 192.862 37.885 C 190.860 40.450 190.368 42.508 192.000 41.500 C 192.558 41.155 192.993 41.903 192.985 43.191 C 192.972 45.049 192.780 45.207 192.000 44.000 C 191.061 42.547 190.890 42.692 190.625 45.167 C 190.556 45.808 189.875 46.542 189.111 46.796 C 188.323 47.059 188.001 46.807 188.367 46.214 C 188.723 45.640 187.885 43.829 186.507 42.190 C 183.895 39.086 183.289 37.000 185.000 37.000 C 185.550 37.000 186.000 36.273 186.000 35.383 C 186.000 34.259 185.391 33.926 184.000 34.290 C 182.700 34.630 182.000 34.320 182.000 33.406 C 182.000 32.633 181.475 32.000 180.833 32.000 C 180.192 32.000 179.942 31.725 180.278 31.389 C 181.536 30.131 175.160 25.999 171.856 25.930 C 169.138 25.873 168.880 25.706 170.500 25.055 C 171.600 24.612 172.838 24.446 173.250 24.684 C 173.663 24.923 174.000 24.641 174.000 24.059 C 174.000 23.477 175.238 22.966 176.750 22.924 C 179.413 22.850 179.390 22.805 176.000 21.500 C 173.974 20.720 168.709 20.162 163.500 20.176 C 157.549 20.191 155.347 20.471 157.000 21.000 C 158.967 21.630 158.381 21.822 154.250 21.900 C 151.363 21.955 149.000 22.450 149.000 23.000 C 149.000 23.550 147.763 24.061 146.250 24.136 C 143.870 24.254 143.805 24.331 145.765 24.708 C 147.010 24.947 147.805 25.506 147.531 25.950 C 146.938 26.909 152.807 28.237 154.103 27.437 C 154.596 27.132 155.000 27.336 155.000 27.891 C 155.000 28.446 154.213 29.400 153.250 30.011 C 151.761 30.956 151.903 31.060 154.200 30.709 C 155.863 30.455 157.099 30.816 157.419 31.648 C 157.704 32.392 157.389 33.029 156.719 33.063 C 156.048 33.098 156.613 33.571 157.973 34.114 L 160.446 35.100 157.045 37.762 L 153.644 40.423 158.572 41.593 C 162.040 42.416 162.703 42.798 160.809 42.881 C 159.329 42.947 157.840 43.450 157.500 44.000 C 157.160 44.550 156.346 44.986 155.691 44.968 C 155.036 44.951 155.374 44.276 156.441 43.468 C 158.911 41.600 157.287 41.621 154.000 43.500 C 152.092 44.591 151.914 44.938 153.250 44.965 C 154.213 44.984 155.000 45.450 155.000 46.000 C 155.000 46.550 155.736 47.000 156.635 47.000 C 157.845 47.000 157.610 47.519 155.727 49.000 C 154.329 50.100 152.468 51.000 151.592 51.000 C 150.717 51.000 150.000 51.480 150.000 52.067 C 150.000 53.443 153.859 52.291 156.483 50.132 C 158.352 48.594 158.386 48.603 157.075 50.292 C 156.065 51.595 155.985 52.385 156.784 53.184 C 157.583 53.983 156.465 54.321 152.692 54.420 C 149.836 54.495 148.989 54.656 150.809 54.778 C 152.732 54.907 153.857 55.422 153.496 56.007 C 153.153 56.561 153.577 57.284 154.437 57.614 C 155.296 57.944 156.000 59.040 156.000 60.050 C 156.000 61.060 157.000 62.587 158.223 63.443 L 160.445 65.000 158.223 65.000 C 155.750 65.000 155.389 65.989 157.200 67.800 C 158.133 68.733 158.133 69.267 157.200 70.200 C 156.540 70.860 156.000 72.210 156.000 73.200 C 156.000 74.190 155.520 75.000 154.933 75.000 C 154.335 75.000 154.133 75.845 154.474 76.919 C 154.897 78.251 154.535 78.980 153.292 79.303 C 152.139 79.602 152.481 79.809 154.250 79.884 C 156.192 79.966 156.977 80.514 156.921 81.750 C 156.878 82.713 156.628 82.976 156.366 82.336 C 156.043 81.546 154.956 81.439 152.987 82.004 C 150.182 82.808 150.103 82.736 150.666 79.918 C 151.176 77.369 150.950 76.985 148.875 76.882 C 147.569 76.816 145.938 76.836 145.250 76.925 C 144.563 77.015 144.000 76.618 144.000 76.044 C 144.000 75.458 141.807 75.000 139.000 75.000 C 136.250 75.000 134.000 74.550 134.000 74.000 C 134.000 73.009 138.014 72.645 145.248 72.979 C 148.212 73.116 148.875 72.838 148.419 71.650 C 148.029 70.633 148.595 70.007 150.171 69.712 C 151.452 69.472 150.475 69.494 148.000 69.760 C 143.065 70.292 139.570 70.401 136.500 70.120 C 134.526 69.939 134.525 69.917 136.441 68.468 C 138.206 67.133 137.706 66.994 130.941 66.930 C 126.039 66.883 124.182 66.579 125.500 66.037 C 127.273 65.308 127.310 65.137 125.831 64.531 C 124.898 64.149 123.098 64.545 121.751 65.428 C 120.425 66.296 119.039 66.705 118.670 66.337 C 117.290 64.957 118.083 64.000 120.608 64.000 C 122.891 64.000 123.139 63.688 122.589 61.500 C 121.996 59.136 122.186 59.000 126.088 59.000 C 129.345 59.000 130.093 58.684 129.638 57.500 C 129.167 56.271 130.130 56.000 134.972 56.000 C 141.002 56.000 143.671 54.665 139.981 53.494 C 138.855 53.137 134.686 52.691 130.717 52.503 C 123.024 52.138 119.000 51.267 119.000 49.967 C 119.000 49.527 119.563 48.930 120.250 48.641 C 121.112 48.279 120.883 47.731 119.510 46.874 C 117.818 45.818 118.471 45.671 123.866 45.891 C 128.193 46.068 129.999 45.808 129.546 45.075 C 129.181 44.484 127.169 44.000 125.075 44.000 L 121.269 44.000 122.043 39.764 C 122.469 37.434 122.425 34.793 121.944 33.895 C 121.464 32.998 121.326 32.008 121.637 31.696 C 121.949 31.384 120.587 30.826 118.611 30.455 C 116.635 30.084 115.270 29.373 115.578 28.874 C 115.886 28.375 116.510 28.197 116.964 28.478 C 117.419 28.759 118.032 28.360 118.326 27.592 C 118.732 26.536 118.088 26.287 115.681 26.570 C 113.931 26.775 113.065 26.693 113.756 26.386 C 114.447 26.080 114.758 25.418 114.447 24.915 C 114.133 24.406 116.241 23.993 119.191 23.985 C 122.843 23.974 124.043 23.680 123.034 23.042 C 122.228 22.533 118.628 22.323 115.034 22.576 C 110.952 22.863 109.234 22.715 110.457 22.182 C 112.083 21.473 111.745 21.218 108.457 20.675 C 104.068 19.951 94.475 19.965 97.262 20.692 C 98.231 20.945 98.767 21.567 98.453 22.076 C 97.583 23.484 90.818 23.111 88.000 21.500 C 86.019 20.368 80.255 20.064 60.250 20.035 L 35.000 20.000 35.000 25.059 M 98.900 34.867 L 98.801 37.500 98.000 35.000 C 97.560 33.625 97.155 33.026 97.100 33.668 C 97.045 34.311 96.750 35.489 96.443 36.287 C 96.096 37.193 96.658 37.939 97.943 38.275 C 99.075 38.571 99.993 39.417 99.985 40.156 C 99.973 41.177 99.736 41.139 99.000 40.000 C 98.216 38.787 98.028 38.931 98.015 40.750 C 98.004 42.436 98.577 43.000 100.301 43.000 C 102.907 43.000 107.980 45.127 107.992 46.225 C 107.996 46.624 106.763 46.709 105.250 46.414 C 103.293 46.032 101.538 46.593 99.165 48.358 C 96.141 50.608 96.001 50.927 97.665 51.782 C 98.674 52.301 103.100 53.017 107.500 53.374 C 125.788 54.855 133.271 56.000 124.667 56.000 C 122.650 56.000 121.000 56.450 121.000 57.000 C 121.000 57.550 120.523 58.000 119.941 58.000 C 119.359 58.000 119.128 57.601 119.429 57.114 C 119.730 56.627 118.857 56.015 117.488 55.753 C 116.120 55.491 115.000 55.589 115.000 55.971 C 115.000 56.352 112.413 56.527 109.250 56.358 C 105.729 56.171 104.420 56.339 105.873 56.791 L 108.246 57.530 105.873 58.674 C 104.568 59.304 102.713 60.070 101.750 60.378 C 99.909 60.966 99.281 64.000 101.000 64.000 C 101.550 64.000 102.000 64.450 102.000 65.000 C 102.000 65.550 101.073 66.000 99.941 66.000 C 98.809 66.000 98.091 66.338 98.346 66.750 C 98.601 67.163 89.603 67.454 78.351 67.397 C 56.954 67.289 54.380 66.794 56.630 63.222 C 57.563 61.742 59.783 61.461 72.454 61.223 C 85.949 60.969 87.133 60.800 86.487 59.223 C 85.515 56.852 85.523 53.865 86.508 51.593 C 87.033 50.382 86.817 48.786 85.917 47.219 C 84.515 44.778 84.357 44.753 71.414 44.923 L 58.328 45.094 58.200 41.688 L 58.072 38.282 67.412 38.771 C 80.097 39.435 90.071 38.349 89.318 36.386 C 88.940 35.400 89.780 34.532 91.877 33.740 C 93.595 33.092 95.000 32.252 95.000 31.874 C 95.000 31.496 95.900 31.423 97.000 31.710 C 98.399 32.076 98.970 33.025 98.900 34.867 M 324.500 39.887 C 328.629 40.393 329.500 40.848 329.500 42.500 C 329.500 43.850 330.069 44.405 331.250 44.206 C 332.259 44.037 333.000 44.537 333.000 45.389 C 333.000 46.384 332.016 46.838 329.986 46.781 C 326.176 46.672 325.495 47.352 327.452 49.310 C 328.304 50.161 329.000 51.339 329.000 51.929 C 329.000 52.973 330.300 53.385 332.675 53.092 C 334.371 52.883 335.374 54.937 333.813 55.424 C 333.091 55.649 331.263 56.104 329.750 56.436 C 326.294 57.193 326.221 58.753 329.581 60.031 C 333.891 61.669 331.834 63.456 324.922 64.077 C 319.767 64.541 319.350 64.689 322.809 64.827 C 328.775 65.066 327.157 67.000 320.991 67.000 C 317.797 67.000 315.822 66.505 315.300 65.574 C 314.860 64.790 312.700 64.003 310.500 63.824 C 307.275 63.563 306.500 63.113 306.500 61.500 C 306.500 60.187 307.273 59.390 308.750 59.180 C 309.988 59.005 311.000 58.442 311.000 57.930 C 311.000 57.419 311.594 57.000 312.320 57.000 C 313.045 57.000 314.618 55.875 315.813 54.500 C 317.009 53.125 318.466 52.000 319.052 52.000 C 319.639 52.000 319.866 51.592 319.558 51.094 C 319.250 50.596 318.115 50.419 317.035 50.701 C 315.929 50.990 314.336 50.479 313.387 49.530 C 312.460 48.603 310.843 48.069 309.794 48.344 C 308.239 48.750 308.104 48.580 309.065 47.421 C 309.726 46.625 312.280 45.926 314.872 45.832 C 319.229 45.674 319.280 45.641 315.750 45.272 C 312.117 44.892 310.346 43.000 313.622 43.000 C 314.921 43.000 315.007 42.713 314.049 41.559 C 313.392 40.767 312.212 40.365 311.427 40.666 C 310.642 40.968 310.000 40.749 310.000 40.180 C 310.000 38.728 312.961 38.062 316.500 38.718 C 318.150 39.024 321.750 39.550 324.500 39.887 M 254.178 44.646 C 253.270 46.270 256.148 53.383 258.500 55.326 C 259.141 55.856 259.011 56.348 258.137 56.697 C 256.986 57.157 256.986 57.377 258.137 58.106 C 258.994 58.649 257.337 58.975 253.678 58.985 C 247.922 59.000 247.860 58.969 248.141 56.250 C 248.297 54.738 248.818 52.957 249.298 52.294 C 249.779 51.630 249.913 50.669 249.597 50.157 C 249.281 49.645 249.698 48.666 250.523 47.981 C 251.604 47.084 251.729 46.379 250.971 45.465 C 249.889 44.161 250.968 43.251 253.800 43.079 C 254.717 43.023 254.828 43.484 254.178 44.646 M 391.196 44.615 C 390.303 46.210 393.203 53.429 395.500 55.326 C 396.141 55.856 396.011 56.348 395.137 56.697 C 393.986 57.157 393.986 57.377 395.137 58.106 C 395.992 58.648 394.296 58.975 390.583 58.985 C 387.329 58.993 384.963 58.704 385.325 58.342 C 385.687 57.980 385.481 57.080 384.869 56.342 C 384.050 55.355 384.052 55.000 384.878 55.000 C 385.495 55.000 386.000 54.506 386.000 53.901 C 386.000 53.297 386.765 51.189 387.701 49.218 C 388.955 46.576 389.084 45.528 388.195 45.232 C 386.406 44.635 387.809 43.000 390.109 43.000 C 391.648 43.000 391.894 43.367 391.196 44.615 M 98.583 25.000 C 95.648 25.000 95.000 25.367 95.000 27.031 C 95.000 28.149 94.287 29.336 93.416 29.671 C 92.141 30.160 92.092 30.443 93.166 31.124 C 94.040 31.678 93.284 31.975 90.974 31.985 C 87.467 32.000 87.449 31.978 87.824 28.043 L 88.202 24.087 94.851 23.793 C 98.508 23.632 101.650 23.838 101.833 24.250 C 102.017 24.663 100.554 25.000 98.583 25.000 M 105.723 70.971 C 105.861 72.803 105.237 72.936 96.907 72.858 C 89.201 72.786 88.112 72.570 89.145 71.326 C 90.085 70.193 91.753 70.029 96.813 70.570 C 101.520 71.075 103.090 70.955 102.581 70.132 C 102.157 69.446 102.609 69.000 103.728 69.000 C 104.849 69.000 105.633 69.775 105.723 70.971 M 174.191 66.970 C 172.882 66.987 172.153 66.562 172.508 65.988 C 172.921 65.319 173.705 65.308 174.817 65.957 C 176.268 66.804 176.182 66.943 174.191 66.970 "/></g>
<g fill="#FEFEFEFE" stroke="#FEFEFEFE">
<path d="M 356.423 77.433 C 353.851 79.993 352.776 82.744 354.044 83.527 C 354.570 83.852 355.000 83.676 355.000 83.136 C 355.000 82.595 356.137 80.803 357.526 79.152 C 360.425 75.706 359.542 74.329 356.423 77.433 "/></g>
<g fill="#FEFEFEFE" stroke="#FEFEFEFE">
<path d="M 358.750 64.217 C 356.818 66.634 356.447 69.000 358.000 69.000 C 358.550 69.000 359.000 68.467 359.000 67.814 C 359.000 67.162 359.978 65.587 361.174 64.314 C 362.720 62.669 362.937 62.004 361.924 62.013 C 361.141 62.021 359.713 63.012 358.750 64.217 "/></g>
<g fill="#FEFEFEFE" stroke="#FEFEFEFE">
<path d="M 356.000 31.068 C 351.814 31.656 351.954 31.706 358.000 31.786 C 361.719 31.836 363.644 31.566 362.500 31.155 C 361.400 30.760 358.475 30.721 356.000 31.068 "/></g>
<g fill="#D8FEFEFE" stroke="#D8FEFEFE">
<path d="M 151.998 71.100 C 147.208 71.739 147.458 72.153 152.763 72.368 C 154.558 72.441 156.132 72.050 156.261 71.500 C 156.407 70.880 154.786 70.728 151.998 71.100 "/></g>
<g fill="#FEFEFEFE" stroke="#FEFEFEFE">
<path d="M 155.018 35.798 C 152.912 36.542 150.843 38.785 151.747 39.344 C 152.167 39.603 153.584 38.946 154.897 37.883 C 157.425 35.835 157.478 34.928 155.018 35.798 "/></g>
<g fill="#D8FEFEFE" stroke="#D8FEFEFE">
<path d="M 92.750 25.662 C 94.768 26.476 94.185 28.718 91.794 29.344 C 90.580 29.661 89.867 30.200 90.208 30.541 C 90.549 30.883 91.767 30.660 92.914 30.046 C 95.488 28.668 95.738 24.967 93.250 25.079 C 92.205 25.126 92.003 25.361 92.750 25.662 "/></g>
<g fill="#D8FEFEFE" stroke="#D8FEFEFE">
<path d="M 36.825 21.508 C 36.546 21.787 36.675 23.700 37.113 25.758 L 37.908 29.500 37.660 25.793 C 37.456 22.751 37.779 22.012 39.456 21.679 C 41.477 21.277 41.476 21.271 39.417 21.136 C 38.271 21.061 37.105 21.229 36.825 21.508 "/></g>
<g fill="#FEFEFEFE" stroke="#FEFEFEFE">
<path d="M 141.000 67.065 C 138.977 67.660 139.343 67.820 142.917 67.900 C 145.346 67.955 147.020 67.687 146.638 67.304 C 145.634 66.301 143.853 66.225 141.000 67.065 "/></g>
<g fill="#FEFEFEFE" stroke="#FEFEFEFE">
<path d="M 190.250 35.662 C 189.025 36.157 188.447 39.000 189.571 39.000 C 190.314 39.000 193.000 36.314 193.000 35.571 C 193.000 34.911 192.032 34.943 190.250 35.662 "/></g>
<g fill="#FEFEFEFE" stroke="#FEFEFEFE">
<path d="M 372.000 27.929 C 372.000 28.439 371.293 29.564 370.429 30.429 C 369.564 31.293 369.307 32.000 369.857 32.000 C 371.116 32.000 374.000 29.166 374.000 27.929 C 374.000 27.418 373.550 27.000 373.000 27.000 C 372.450 27.000 372.000 27.418 372.000 27.929 "/></g>
<g fill="#D8FEFEFE" stroke="#D8FEFEFE">
<path d="M 56.642 66.230 C 56.904 66.654 59.229 66.937 61.809 66.859 L 66.500 66.718 61.333 66.089 C 58.491 65.743 56.380 65.807 56.642 66.230 "/></g>
<g fill="#D8FEFEFE" stroke="#D8FEFEFE">
<path d="M 118.000 64.941 C 118.000 66.684 119.692 66.946 121.603 65.500 C 123.400 64.139 123.356 64.062 120.750 64.032 C 119.238 64.014 118.000 64.423 118.000 64.941 "/></g>
<g fill="#D8FEFEFE" stroke="#D8FEFEFE">
<path d="M 289.000 33.796 C 289.000 34.234 291.138 34.294 293.750 33.930 L 298.500 33.267 293.750 33.134 C 291.138 33.060 289.000 33.358 289.000 33.796 "/></g>
<g fill="#FEFEFEFE" stroke="#FEFEFEFE">
<path d="M 35.266 51.226 C 34.706 51.927 34.569 53.384 34.962 54.464 C 35.595 56.203 35.757 56.105 36.387 53.596 C 37.202 50.347 36.744 49.378 35.266 51.226 "/></g>
<g fill="#FEFEFEFE" stroke="#FEFEFEFE">
<path d="M 90.250 25.689 C 91.213 25.941 92.000 26.789 92.000 27.573 C 92.000 28.358 92.450 29.000 93.000 29.000 C 93.550 29.000 94.000 28.373 94.000 27.607 C 94.000 26.187 91.775 24.907 89.668 25.116 C 89.026 25.180 89.288 25.438 90.250 25.689 "/></g>
<g fill="#D8FEFEFE" stroke="#D8FEFEFE">
<path d="M 155.168 59.500 C 155.041 61.936 157.222 65.000 159.083 65.000 C 159.883 65.000 159.556 64.377 158.291 63.491 C 157.106 62.661 155.942 60.974 155.705 59.741 C 155.332 57.811 155.258 57.778 155.168 59.500 "/></g>
<g fill="#FEFEFEFE" stroke="#FEFEFEFE">
<path d="M 189.211 28.538 C 187.592 30.374 188.750 30.358 192.000 28.500 C 194.207 27.238 194.266 27.071 192.500 27.073 C 191.400 27.075 189.920 27.734 189.211 28.538 "/></g>
<g fill="#D8FEFEFE" stroke="#D8FEFEFE">
<path d="M 185.000 70.091 C 182.263 70.868 182.366 71.042 185.792 71.419 C 187.115 71.565 187.960 71.188 187.792 70.527 C 187.607 69.803 186.581 69.643 185.000 70.091 "/></g>
<g fill="#D8FEFEFE" stroke="#D8FEFEFE">
<path d="M 341.618 63.809 C 341.343 64.255 343.004 64.311 345.309 63.935 L 349.500 63.250 345.809 63.125 C 343.779 63.056 341.893 63.364 341.618 63.809 "/></g>
<g fill="#D8FEFEFE" stroke="#D8FEFEFE">
<path d="M 149.500 55.713 C 150.600 55.978 151.924 56.597 152.442 57.090 C 153.010 57.628 153.472 57.391 153.604 56.492 C 153.762 55.418 152.937 55.033 150.662 55.116 C 148.561 55.193 148.171 55.393 149.500 55.713 "/></g>
<g fill="#D8FEFEFE" stroke="#D8FEFEFE">
<path d="M 208.143 48.110 C 209.923 49.237 213.272 49.249 212.577 48.125 C 212.280 47.644 210.855 47.250 209.411 47.250 C 207.562 47.250 207.187 47.504 208.143 48.110 "/></g>
<g fill="#D8FEFEFE" stroke="#D8FEFEFE">
<path d="M 193.961 33.500 C 193.852 34.050 193.802 34.794 193.850 35.154 C 193.897 35.514 193.275 36.356 192.468 37.027 C 191.661 37.697 191.000 38.700 191.000 39.257 C 191.000 39.814 191.936 39.080 193.080 37.625 C 194.224 36.171 194.935 34.423 194.659 33.740 C 194.383 33.058 194.069 32.950 193.961 33.500 "/></g>
<g fill="#D8FEFEFE" stroke="#D8FEFEFE">
<path d="M 44.500 32.773 C 40.396 33.480 39.633 34.314 43.306 34.080 C 45.400 33.946 46.975 33.520 46.806 33.133 C 46.638 32.745 45.600 32.583 44.500 32.773 "/></g>
<g fill="#D8FEFEFE" stroke="#D8FEFEFE">
<path d="M 373.077 31.000 C 372.350 32.493 372.453 36.162 373.235 36.645 C 373.737 36.955 373.959 35.708 373.731 33.853 C 373.505 32.009 373.211 30.725 373.077 31.000 "/></g>
<g fill="#D8FEFEFE" stroke="#D8FEFEFE">
<path d="M 192.920 22.094 C 194.522 22.734 195.687 22.713 196.370 22.030 C 197.077 21.323 196.318 21.020 193.950 21.063 C 190.708 21.123 190.646 21.185 192.920 22.094 "/></g>
<g fill="#D8FEFEFE" stroke="#D8FEFEFE">
<path d="M 36.792 78.221 C 36.348 79.302 36.720 80.515 37.792 81.483 C 39.348 82.887 39.413 82.867 38.519 81.262 C 37.980 80.293 37.530 78.825 37.519 78.000 C 37.505 76.866 37.327 76.920 36.792 78.221 "/></g>
<g fill="#D8FEFEFE" stroke="#D8FEFEFE">
<path d="M 97.000 62.694 L 94.500 63.981 97.281 63.770 C 98.810 63.654 99.935 63.075 99.781 62.483 C 99.590 61.751 98.699 61.819 97.000 62.694 "/></g>
<g fill="#D8FEFEFE" stroke="#D8FEFEFE">
<path d="M 99.000 47.500 C 98.315 48.325 97.023 49.036 96.128 49.079 C 95.106 49.128 94.962 49.345 95.740 49.659 C 96.423 49.935 98.171 49.224 99.625 48.080 C 101.080 46.936 101.814 46.000 101.257 46.000 C 100.700 46.000 99.685 46.675 99.000 47.500 "/></g>
<g fill="#D8FEFEFE" stroke="#D8FEFEFE">
<path d="M 98.500 24.099 L 95.500 24.763 98.833 24.882 C 100.667 24.947 102.017 24.648 101.833 24.218 C 101.650 23.788 100.150 23.734 98.500 24.099 "/></g>
<g fill="#AEFEFEFE" stroke="#AEFEFEFE">
<path d="M 35.638 62.500 C 35.229 63.567 35.704 63.977 37.281 63.921 C 38.502 63.878 38.935 63.614 38.244 63.336 C 37.553 63.057 37.242 62.418 37.553 61.915 C 37.864 61.412 37.690 61.000 37.166 61.000 C 36.642 61.000 35.955 61.675 35.638 62.500 "/></g>
<g fill="#FEFEFEFE" stroke="#FEFEFEFE">
<path d="M 400.513 80.979 C 399.592 82.469 400.531 83.408 402.021 82.487 C 402.769 82.024 402.832 81.432 402.200 80.800 C 401.568 80.168 400.976 80.231 400.513 80.979 "/></g>
<g fill="#FEFEFEFE" stroke="#FEFEFEFE">
<path d="M 34.427 77.479 C 33.367 78.280 32.950 78.944 33.500 78.953 C 34.986 78.977 37.526 77.192 36.898 76.565 C 36.599 76.265 35.487 76.677 34.427 77.479 "/></g>
<g fill="#FEFEFEFE" stroke="#FEFEFEFE">
<path d="M 35.000 74.000 C 35.000 75.253 36.061 75.253 38.000 74.000 C 39.213 73.216 39.069 73.028 37.250 73.015 C 36.013 73.007 35.000 73.450 35.000 74.000 "/></g>
<g fill="#FEFEFEFE" stroke="#FEFEFEFE">
<path d="M 95.000 48.086 C 92.508 48.798 92.509 48.801 95.333 48.900 C 96.892 48.955 98.017 48.633 97.833 48.185 C 97.650 47.737 96.375 47.692 95.000 48.086 "/></g>
<g fill="#FEFEFEFE" stroke="#FEFEFEFE">
<path d="M 34.638 38.500 C 34.322 39.325 34.306 40.000 34.603 40.000 C 34.900 40.000 35.818 39.325 36.643 38.500 C 37.944 37.199 37.949 37.000 36.678 37.000 C 35.873 37.000 34.955 37.675 34.638 38.500 "/></g>
<g fill="#FEFEFEFE" stroke="#FEFEFEFE">
<path d="M 377.000 26.086 C 374.508 26.798 374.509 26.801 377.333 26.900 C 378.892 26.955 380.017 26.633 379.833 26.185 C 379.650 25.737 378.375 25.692 377.000 26.086 "/></g>
<g fill="#D8FEFEFE" stroke="#D8FEFEFE">
<path d="M 362.508 60.013 C 362.844 60.556 363.766 61.000 364.559 61.000 C 365.352 61.000 366.068 61.450 366.150 62.000 C 366.233 62.550 366.345 62.489 366.400 61.865 C 366.455 61.240 365.465 60.346 364.199 59.878 C 362.732 59.335 362.119 59.384 362.508 60.013 "/></g>
<g fill="#D8FEFEFE" stroke="#D8FEFEFE">
<path d="M 36.520 53.250 C 36.116 54.213 36.116 55.788 36.520 56.750 C 37.026 57.955 37.254 57.411 37.254 55.000 C 37.254 52.589 37.026 52.045 36.520 53.250 "/></g>
<g fill="#D8FEFEFE" stroke="#D8FEFEFE">
<path d="M 324.473 46.956 C 324.833 47.539 325.928 47.564 327.282 47.019 C 329.376 46.177 329.342 46.123 326.691 46.063 C 325.146 46.029 324.148 46.430 324.473 46.956 "/></g>
<g fill="#D8FEFEFE" stroke="#D8FEFEFE">
<path d="M 286.936 47.336 C 287.447 47.847 288.683 47.905 289.683 47.465 C 291.180 46.805 291.017 46.642 288.754 46.536 C 287.062 46.457 286.364 46.764 286.936 47.336 "/></g>
<g fill="#D8FEFEFE" stroke="#D8FEFEFE">
<path d="M 158.000 41.954 C 158.825 42.513 160.363 42.976 161.417 42.985 C 163.975 43.005 163.177 42.433 159.500 41.610 C 157.309 41.120 156.905 41.213 158.000 41.954 "/></g>
<g fill="#D8FEFEFE" stroke="#D8FEFEFE">
<path d="M 235.483 34.026 C 235.684 36.743 237.000 37.785 237.000 35.226 C 237.000 34.066 236.627 32.887 236.171 32.605 C 235.714 32.323 235.405 32.963 235.483 34.026 "/></g>
<g fill="#D8FEFEFE" stroke="#D8FEFEFE">
<path d="M 196.150 25.000 C 196.068 25.550 195.100 26.080 194.000 26.179 C 192.557 26.307 192.627 26.377 194.250 26.429 C 195.488 26.468 196.455 25.938 196.400 25.250 C 196.345 24.563 196.233 24.450 196.150 25.000 "/></g>
<g fill="#D8FEFEFE" stroke="#D8FEFEFE">
<path d="M 242.500 23.000 C 241.505 24.100 240.985 25.000 241.345 25.000 C 241.705 25.000 242.900 24.100 244.000 23.000 C 245.100 21.900 245.620 21.000 245.155 21.000 C 244.690 21.000 243.495 21.900 242.500 23.000 "/></g>
<g fill="#AEFEFEFE" stroke="#AEFEFEFE">
<path d="M 190.000 26.000 C 190.000 27.253 191.061 27.253 193.000 26.000 C 194.213 25.216 194.069 25.028 192.250 25.015 C 191.013 25.007 190.000 25.450 190.000 26.000 "/></g>
<g fill="#D8FEFEFE" stroke="#D8FEFEFE">
<path d="M 98.750 78.608 C 98.338 79.007 98.050 80.271 98.111 81.417 C 98.192 82.947 98.391 82.754 98.861 80.691 C 99.212 79.146 99.163 78.208 98.750 78.608 "/></g>
<g fill="#D8FEFEFE" stroke="#D8FEFEFE">
<path d="M 267.150 78.000 C 267.068 78.550 266.325 79.075 265.500 79.167 C 264.675 79.258 264.788 79.371 265.750 79.417 C 266.713 79.463 267.455 78.938 267.400 78.250 C 267.345 77.563 267.233 77.450 267.150 78.000 "/></g>
<g fill="#D8FEFEFE" stroke="#D8FEFEFE">
<path d="M 36.552 70.915 C 36.216 71.459 37.105 71.494 38.743 71.001 C 41.094 70.294 41.177 70.159 39.309 70.086 C 38.104 70.039 36.863 70.412 36.552 70.915 "/></g>
<g fill="#D8FEFEFE" stroke="#D8FEFEFE">
<path d="M 172.508 65.988 C 172.153 66.562 172.882 66.987 174.191 66.970 C 176.182 66.943 176.268 66.804 174.817 65.957 C 173.705 65.308 172.921 65.319 172.508 65.988 "/></g>
<g fill="#D8FEFEFE" stroke="#D8FEFEFE">
<path d="M 155.500 53.477 C 157.234 54.703 157.391 54.699 156.685 53.446 C 156.236 52.651 155.336 52.014 154.685 52.032 C 154.033 52.049 154.400 52.700 155.500 53.477 "/></g>
<g fill="#D8FEFEFE" stroke="#D8FEFEFE">
<path d="M 36.032 46.559 C 36.049 47.076 36.724 48.374 37.532 49.441 C 38.339 50.509 38.986 50.959 38.968 50.441 C 38.951 49.924 38.276 48.626 37.468 47.559 C 36.661 46.491 36.014 46.041 36.032 46.559 "/></g>
<g fill="#D8FEFEFE" stroke="#D8FEFEFE">
<path d="M 237.667 27.667 C 237.300 28.033 237.000 28.805 237.000 29.381 C 237.000 29.957 237.771 29.657 238.714 28.714 C 239.657 27.771 239.957 27.000 239.381 27.000 C 238.805 27.000 238.033 27.300 237.667 27.667 "/></g>
<g fill="#D8FEFEFE" stroke="#D8FEFEFE">
<path d="M 379.595 22.996 C 378.547 24.098 378.130 25.000 378.667 25.000 C 379.205 25.000 380.062 24.098 380.572 22.996 L 381.500 20.991 379.595 22.996 "/></g>
<g fill="#AEFEFEFE" stroke="#AEFEFEFE">
<path d="M 185.694 71.644 C 186.350 71.911 186.645 72.888 186.349 73.815 C 185.905 75.208 185.990 75.248 186.840 74.048 C 188.009 72.396 187.455 70.962 185.691 71.079 C 184.773 71.140 184.773 71.269 185.694 71.644 "/></g>
<g fill="#AEFEFEFE" stroke="#AEFEFEFE">
<path d="M 152.000 53.000 C 152.000 53.550 152.702 54.000 153.559 54.000 C 154.416 54.000 154.840 53.550 154.500 53.000 C 154.160 52.450 153.459 52.000 152.941 52.000 C 152.423 52.000 152.000 52.450 152.000 53.000 "/></g>
<g fill="#AEFEFEFE" stroke="#AEFEFEFE">
<path d="M 97.183 47.043 C 98.295 47.692 99.079 47.681 99.492 47.012 C 99.847 46.438 99.118 46.013 97.809 46.030 C 95.818 46.057 95.732 46.196 97.183 47.043 "/></g>
<g fill="#AEFEFEFE" stroke="#AEFEFEFE">
<path d="M 193.500 32.064 C 191.634 32.806 191.656 32.864 193.833 32.930 C 195.117 32.968 196.017 32.610 195.833 32.134 C 195.650 31.658 194.600 31.626 193.500 32.064 "/></g>
<g fill="#AEFEFEFE" stroke="#AEFEFEFE">
<path d="M 155.215 33.250 L 156.500 35.500 156.187 33.250 C 156.015 32.013 155.437 31.000 154.902 31.000 C 154.365 31.000 154.505 32.007 155.215 33.250 "/></g>
<g fill="#AEFEFEFE" stroke="#AEFEFEFE">
<path d="M 372.250 30.770 C 371.563 30.988 371.009 31.917 371.019 32.833 C 371.035 34.181 371.274 34.104 372.269 32.437 C 373.249 30.795 373.245 30.454 372.250 30.770 "/></g>
<g fill="#AEFEFEFE" stroke="#AEFEFEFE">
<path d="M 380.150 26.000 C 380.068 26.550 379.325 27.075 378.500 27.167 C 377.675 27.258 377.788 27.371 378.750 27.417 C 379.713 27.463 380.455 26.938 380.400 26.250 C 380.345 25.563 380.233 25.450 380.150 26.000 "/></g>
<g fill="#FEFEFEFE" stroke="#FEFEFEFE">
<path d="M 407.508 36.013 C 407.844 36.556 408.879 36.971 409.809 36.937 C 411.009 36.892 410.833 36.605 409.199 35.950 C 407.708 35.352 407.113 35.374 407.508 36.013 "/></g>
<g fill="#FEFEFEFE" stroke="#FEFEFEFE">
<path d="M 270.000 36.000 C 270.825 36.533 271.950 36.969 272.500 36.969 C 273.050 36.969 272.825 36.533 272.000 36.000 C 271.175 35.467 270.050 35.031 269.500 35.031 C 268.950 35.031 269.175 35.467 270.000 36.000 "/></g>
<g fill="#D8FEFEFE" stroke="#D8FEFEFE">
<path d="M 402.729 81.604 C 401.608 82.725 401.865 84.202 403.053 83.467 C 403.632 83.110 403.960 82.380 403.782 81.846 C 403.604 81.312 403.130 81.203 402.729 81.604 "/></g>
<g fill="#D8FEFEFE" stroke="#D8FEFEFE">
<path d="M 222.400 76.522 C 222.523 77.358 222.933 77.733 223.312 77.355 C 224.293 76.374 224.163 75.000 223.088 75.000 C 222.587 75.000 222.277 75.685 222.400 76.522 "/></g>
<g fill="#D8FEFEFE" stroke="#D8FEFEFE">
<path d="M 359.063 68.191 C 359.029 69.121 359.444 70.156 359.987 70.492 C 360.626 70.887 360.648 70.292 360.050 68.801 C 359.395 67.167 359.108 66.991 359.063 68.191 "/></g>
<g fill="#D8FEFEFE" stroke="#D8FEFEFE">
<path d="M 106.000 46.000 C 106.000 46.550 106.450 47.000 107.000 47.000 C 107.550 47.000 108.000 46.550 108.000 46.000 C 108.000 45.450 107.550 45.000 107.000 45.000 C 106.450 45.000 106.000 45.450 106.000 46.000 "/></g>
<g fill="#D8FEFEFE" stroke="#D8FEFEFE">
<path d="M 188.821 45.644 C 189.367 46.620 189.973 46.852 190.356 46.233 C 190.704 45.670 190.298 44.944 189.453 44.620 C 188.278 44.170 188.130 44.410 188.821 45.644 "/></g>
<g fill="#D8FEFEFE" stroke="#D8FEFEFE">
<path d="M 186.508 42.013 C 186.844 42.556 187.879 42.971 188.809 42.937 C 190.009 42.892 189.833 42.605 188.199 41.950 C 186.708 41.352 186.113 41.374 186.508 42.013 "/></g>
<g fill="#D8FEFEFE" stroke="#D8FEFEFE">
<path d="M 223.030 40.750 C 223.059 42.417 223.109 42.417 224.080 40.750 C 224.781 39.547 224.771 39.000 224.050 39.000 C 223.472 39.000 223.014 39.788 223.030 40.750 "/></g>
<g fill="#D8FEFEFE" stroke="#D8FEFEFE">
<path d="M 154.794 38.613 C 154.524 40.096 154.610 40.096 155.872 38.613 C 156.700 37.641 156.816 37.000 156.166 37.000 C 155.573 37.000 154.955 37.726 154.794 38.613 "/></g>
<g fill="#D8FEFEFE" stroke="#D8FEFEFE">
<path d="M 268.000 35.950 C 268.000 36.528 268.788 36.986 269.750 36.970 C 271.417 36.941 271.417 36.891 269.750 35.920 C 268.547 35.219 268.000 35.229 268.000 35.950 "/></g>
<g fill="#D8FEFEFE" stroke="#D8FEFEFE">
<path d="M 158.000 35.000 C 158.825 35.533 159.275 36.030 159.000 36.103 C 158.725 36.177 158.860 36.176 159.299 36.102 C 160.515 35.897 159.051 33.998 157.691 34.015 C 156.975 34.025 157.099 34.418 158.000 35.000 "/></g>
<g fill="#D8FEFEFE" stroke="#D8FEFEFE">
<path d="M 156.030 31.250 C 156.014 32.213 156.472 33.000 157.050 33.000 C 157.771 33.000 157.781 32.453 157.080 31.250 C 156.109 29.583 156.059 29.583 156.030 31.250 "/></g>
<g fill="#D8FEFEFE" stroke="#D8FEFEFE">
<path d="M 190.554 29.913 C 190.167 30.538 190.629 31.000 191.641 31.000 C 192.908 31.000 193.096 30.696 192.313 29.913 C 191.530 29.130 191.038 29.130 190.554 29.913 "/></g>
<g fill="#D8FEFEFE" stroke="#D8FEFEFE">
<path d="M 285.872 28.702 C 284.580 30.305 284.644 30.305 286.973 28.702 C 288.332 27.766 288.950 27.000 288.345 27.000 C 287.740 27.000 286.627 27.766 285.872 28.702 "/></g>
<g fill="#D8FEFEFE" stroke="#D8FEFEFE">
<path d="M 151.000 24.050 C 151.000 24.771 151.547 24.781 152.750 24.080 C 154.417 23.109 154.417 23.059 152.750 23.030 C 151.788 23.014 151.000 23.472 151.000 24.050 "/></g>
<g fill="#86FEFEFE" stroke="#86FEFEFE">
<path d="M 283.794 59.613 C 283.524 61.096 283.610 61.096 284.872 59.613 C 285.700 58.641 285.816 58.000 285.166 58.000 C 284.573 58.000 283.955 58.726 283.794 59.613 "/></g>
<g fill="#AEFEFEFE" stroke="#AEFEFEFE">
<path d="M 191.250 43.080 C 192.453 43.781 193.000 43.771 193.000 43.050 C 193.000 42.472 192.213 42.014 191.250 42.030 C 189.583 42.059 189.583 42.109 191.250 43.080 "/></g>
<g fill="#AEFEFEFE" stroke="#AEFEFEFE">
<path d="M 97.429 33.571 C 98.619 34.762 99.146 34.938 98.848 34.045 C 98.588 33.264 97.736 32.412 96.955 32.152 C 96.063 31.854 96.238 32.381 97.429 33.571 "/></g>
<g fill="#AEFEFEFE" stroke="#AEFEFEFE">
<path d="M 235.424 31.037 C 234.610 32.818 234.666 32.874 235.893 31.505 C 236.658 30.651 237.074 29.741 236.817 29.483 C 236.559 29.226 235.932 29.925 235.424 31.037 "/></g>
<g fill="#AEFEFEFE" stroke="#AEFEFEFE">
<path d="M 95.687 22.087 C 96.470 22.870 96.962 22.870 97.446 22.087 C 97.833 21.462 97.371 21.000 96.359 21.000 C 95.092 21.000 94.904 21.304 95.687 22.087 "/></g>
<g fill="#FEFEFEFE" stroke="#FEFEFEFE">
<path d="M 189.000 33.200 C 189.000 34.133 189.267 34.133 190.200 33.200 C 191.133 32.267 191.133 32.000 190.200 32.000 C 189.540 32.000 189.000 32.540 189.000 33.200 "/></g>
<g fill="#D8FEFEFE" stroke="#D8FEFEFE">
<path d="M 403.695 78.352 C 403.275 79.448 403.413 79.863 404.064 79.460 C 404.637 79.106 404.939 78.318 404.736 77.709 C 404.533 77.100 404.065 77.389 403.695 78.352 "/></g>
<g fill="#D8FEFEFE" stroke="#D8FEFEFE">
<path d="M 37.422 75.126 C 36.910 75.955 37.224 75.963 38.613 75.157 C 39.651 74.554 39.964 74.047 39.309 74.030 C 38.654 74.014 37.805 74.507 37.422 75.126 "/></g>
<g fill="#D8FEFEFE" stroke="#D8FEFEFE">
<path d="M 291.843 73.613 C 292.446 74.651 292.953 74.964 292.970 74.309 C 292.986 73.654 292.493 72.805 291.874 72.422 C 291.045 71.910 291.037 72.224 291.843 73.613 "/></g>
<g fill="#D8FEFEFE" stroke="#D8FEFEFE">
<path d="M 293.000 64.047 C 292.010 64.656 291.925 64.975 292.750 64.985 C 293.438 64.993 294.113 64.578 294.250 64.062 C 294.404 63.485 293.924 63.479 293.000 64.047 "/></g>
<g fill="#D8FEFEFE" stroke="#D8FEFEFE">
<path d="M 310.000 39.800 C 310.000 40.460 310.540 41.000 311.200 41.000 C 312.133 41.000 312.133 40.733 311.200 39.800 C 310.267 38.867 310.000 38.867 310.000 39.800 "/></g>
<g fill="#D8FEFEFE" stroke="#D8FEFEFE">
<path d="M 98.843 39.613 C 99.446 40.651 99.953 40.964 99.970 40.309 C 99.986 39.654 99.493 38.805 98.874 38.422 C 98.045 37.910 98.037 38.224 98.843 39.613 "/></g>
<g fill="#D8FEFEFE" stroke="#D8FEFEFE">
<path d="M 36.750 38.666 C 36.338 39.033 36.030 39.821 36.066 40.417 C 36.102 41.013 36.439 40.712 36.816 39.750 C 37.192 38.787 37.163 38.300 36.750 38.666 "/></g>
<g fill="#D8FEFEFE" stroke="#D8FEFEFE">
<path d="M 405.422 35.874 C 405.805 36.493 406.654 36.986 407.309 36.970 C 407.964 36.953 407.651 36.446 406.613 35.843 C 405.224 35.037 404.910 35.045 405.422 35.874 "/></g>
<g fill="#D8FEFEFE" stroke="#D8FEFEFE">
<path d="M 293.422 22.126 C 292.910 22.955 293.224 22.963 294.613 22.157 C 295.651 21.554 295.964 21.047 295.309 21.030 C 294.654 21.014 293.805 21.507 293.422 22.126 "/></g>
<g fill="#AEFEFEFE" stroke="#AEFEFEFE">
<path d="M 401.800 80.200 C 402.733 81.133 403.000 81.133 403.000 80.200 C 403.000 79.540 402.460 79.000 401.800 79.000 C 400.867 79.000 400.867 79.267 401.800 80.200 "/></g>
<g fill="#AEFEFEFE" stroke="#AEFEFEFE">
<path d="M 35.650 78.758 C 35.274 79.365 35.385 80.120 35.896 80.436 C 36.407 80.751 36.714 80.255 36.578 79.332 C 36.424 78.281 36.077 78.066 35.650 78.758 "/></g>
<g fill="#AEFEFEFE" stroke="#AEFEFEFE">
<path d="M 358.378 78.378 L 357.500 79.256 358.378 78.378 L 359.256 77.500 358.378 78.378 "/></g>
<g fill="#AEFEFEFE" stroke="#AEFEFEFE">
<path d="M 36.650 74.758 C 36.274 75.365 36.385 76.120 36.896 76.436 C 37.407 76.751 37.714 76.255 37.578 75.332 C 37.424 74.281 37.077 74.066 36.650 74.758 "/></g>
<g fill="#AEFEFEFE" stroke="#AEFEFEFE">
<path d="M 36.750 43.666 C 36.338 44.033 36.030 44.821 36.066 45.417 C 36.102 46.013 36.439 45.712 36.816 44.750 C 37.192 43.787 37.163 43.300 36.750 43.666 "/></g>
<g fill="#AEFEFEFE" stroke="#AEFEFEFE">
<path d="M 37.030 35.691 C 37.014 36.346 37.507 37.195 38.126 37.578 C 38.955 38.090 38.963 37.776 38.157 36.387 C 37.554 35.349 37.047 35.036 37.030 35.691 "/></g>
<g fill="#AEFEFEFE" stroke="#AEFEFEFE">
<path d="M 192.387 35.157 C 193.776 35.963 194.090 35.955 193.578 35.126 C 193.195 34.507 192.346 34.014 191.691 34.030 C 191.036 34.047 191.349 34.554 192.387 35.157 "/></g>
<g fill="#AEFEFEFE" stroke="#AEFEFEFE">
<path d="M 293.624 25.799 C 293.212 26.466 293.390 27.000 294.024 27.000 C 294.653 27.000 294.987 26.460 294.766 25.799 C 294.455 24.865 294.202 24.865 293.624 25.799 "/></g>
<g fill="#AEFEFEFE" stroke="#AEFEFEFE">
<path d="M 242.378 22.378 L 241.500 23.256 242.378 22.378 L 243.256 21.500 242.378 22.378 "/></g>
</svg>
