<?xml version="1.0" encoding="UTF-8"?>
<svg version="1.1" xmlns="http://www.w3.org/2000/svg" width="330" height="331">
<path d="M0 0 C1.15048828 0.32145996 1.15048828 0.32145996 2.32421875 0.64941406 C24.86112526 7.13302159 44.26234081 18.66480221 61 35 C61.83917969 35.76570313 62.67835938 36.53140625 63.54296875 37.3203125 C87.2031993 59.51353353 101.54117104 93.39816377 103.12646484 125.56616211 C104.28478066 166.00023731 91.99769374 201.68975215 64.29101562 231.63427734 C42.46130438 254.55547415 9.27551139 271.60914948 -22.59838867 273.17700195 C-48.46230506 273.59194877 -74.84434241 273.05173083 -97.53125 258.78515625 C-103.77221444 256.80029256 -111.27353912 259.40224951 -117.41796875 261.07421875 C-118.18998123 261.2788121 -118.96199371 261.48340546 -119.75740051 261.69419861 C-122.23574509 262.35263061 -124.71156123 263.02008502 -127.1875 263.6875 C-128.8963252 264.14236274 -130.60531057 264.59662416 -132.31445312 265.05029297 C-139.61283736 266.99211041 -146.90264858 268.96148069 -154.17578125 270.99609375 C-155.18294189 271.27686768 -156.19010254 271.5576416 -157.2277832 271.84692383 C-159.01365707 272.34816381 -160.79754312 272.85656913 -162.57885742 273.3737793 C-166.84475098 274.57702533 -170.51598642 275.27306493 -175 275 C-176.70187728 271.59624544 -174.76020593 268.05630996 -173.71875 264.56640625 C-173.46917038 263.70978394 -173.21959076 262.85316162 -172.96244812 261.97058105 C-172.42512678 260.12660441 -171.8850804 258.28342012 -171.34262085 256.44094849 C-170.49871569 253.55811273 -169.67292866 250.67068406 -168.8527832 247.78100586 C-164.3029746 231.78216544 -164.3029746 231.78216544 -161.9427948 224.72497559 C-156.9077619 210.62542197 -156.9077619 210.62542197 -159.44995117 196.41430664 C-161.09161294 193.29453395 -162.89599207 190.29249854 -164.73291016 187.28466797 C-179.58734516 160.50089094 -177.3183101 122.88483289 -169.33740234 94.54467773 C-158.45831182 58.99094173 -133.53052349 29.14992314 -100.9375 11.375 C-70.56656169 -4.62629623 -33.15667047 -9.40584305 0 0 Z " fill="#3CC14E" transform="translate(200,28)"/>
<path d="M0 0 C1.15048828 0.32145996 1.15048828 0.32145996 2.32421875 0.64941406 C24.86112526 7.13302159 44.26234081 18.66480221 61 35 C61.83917969 35.76570313 62.67835938 36.53140625 63.54296875 37.3203125 C87.2031993 59.51353353 101.54117104 93.39816377 103.12646484 125.56616211 C104.28478066 166.00023731 91.99769374 201.68975215 64.29101562 231.63427734 C42.46130438 254.55547415 9.27551139 271.60914948 -22.59838867 273.17700195 C-48.46230506 273.59194877 -74.84434241 273.05173083 -97.53125 258.78515625 C-103.77221444 256.80029256 -111.27353912 259.40224951 -117.41796875 261.07421875 C-118.18998123 261.2788121 -118.96199371 261.48340546 -119.75740051 261.69419861 C-122.23574509 262.35263061 -124.71156123 263.02008502 -127.1875 263.6875 C-128.8963252 264.14236274 -130.60531057 264.59662416 -132.31445312 265.05029297 C-139.61283736 266.99211041 -146.90264858 268.96148069 -154.17578125 270.99609375 C-155.18294189 271.27686768 -156.19010254 271.5576416 -157.2277832 271.84692383 C-159.01365707 272.34816381 -160.79754312 272.85656913 -162.57885742 273.3737793 C-166.84475098 274.57702533 -170.51598642 275.27306493 -175 275 C-176.70187728 271.59624544 -174.76020593 268.05630996 -173.71875 264.56640625 C-173.46917038 263.70978394 -173.21959076 262.85316162 -172.96244812 261.97058105 C-172.42512678 260.12660441 -171.8850804 258.28342012 -171.34262085 256.44094849 C-170.49871569 253.55811273 -169.67292866 250.67068406 -168.8527832 247.78100586 C-164.3029746 231.78216544 -164.3029746 231.78216544 -161.9427948 224.72497559 C-156.9077619 210.62542197 -156.9077619 210.62542197 -159.44995117 196.41430664 C-161.09161294 193.29453395 -162.89599207 190.29249854 -164.73291016 187.28466797 C-179.58734516 160.50089094 -177.3183101 122.88483289 -169.33740234 94.54467773 C-158.45831182 58.99094173 -133.53052349 29.14992314 -100.9375 11.375 C-70.56656169 -4.62629623 -33.15667047 -9.40584305 0 0 Z M-66 23 C-67.00804687 23.26683594 -68.01609375 23.53367187 -69.0546875 23.80859375 C-99.3395636 32.84585784 -123.46886958 54.77131706 -138.66015625 81.97265625 C-153.2860409 109.76557772 -154.55468222 140.6937636 -145.60180664 170.44433594 C-142.69527303 179.52627595 -138.79155013 188.72801815 -133.19921875 196.50390625 C-130.64698903 201.81620199 -133.52459402 208.35762422 -135.06640625 213.796875 C-135.26475571 214.51232483 -135.46310516 215.22777466 -135.66746521 215.96490479 C-136.29502844 218.22777332 -136.92812598 220.48903211 -137.5625 222.75 C-138.20024813 225.02530056 -138.8366474 227.30092627 -139.46824646 229.57794189 C-139.85967167 230.98907364 -140.2546054 232.39923804 -140.65345764 233.80828857 C-141.43981724 236.64279013 -142 239.04156308 -142 242 C-135.10755368 241.32736367 -128.57696571 239.77705196 -121.875 238.0625 C-120.81667969 237.79759766 -119.75835937 237.53269531 -118.66796875 237.25976562 C-114.61231378 236.23440242 -110.63284978 235.22815506 -106.6953125 233.80859375 C-100.83662538 232.05098761 -96.59900232 232.80883733 -91.35839844 235.59082031 C-90.70387695 235.95272461 -90.04935547 236.31462891 -89.375 236.6875 C-87.95259375 237.42976717 -86.528085 238.16801845 -85.1015625 238.90234375 C-84.40321289 239.26312012 -83.70486328 239.62389648 -82.98535156 239.99560547 C-58.88625328 252.18740212 -30.70009505 253.11245526 -5 246 C-3.91847656 245.71125 -2.83695313 245.4225 -1.72265625 245.125 C26.45463535 236.65290158 51.56400775 215.9474426 65.86328125 190.28125 C79.65775733 163.76752064 84.23731596 130.86313664 75.39794922 102.03662109 C65.87857552 72.46595239 46.01539186 47.25101289 18.5 32.625 C10.8691844 28.71160602 3.25677472 25.38399834 -5 23 C-6.03640625 22.68289062 -7.0728125 22.36578125 -8.140625 22.0390625 C-26.18916206 17.46396822 -48.06903944 18.00957604 -66 23 Z " fill="#FCFEFC" transform="translate(200,28)"/>
<path d="M0 0 C1.96453125 -0.02900391 1.96453125 -0.02900391 3.96875 -0.05859375 C8.14016286 0.52743438 8.84929096 1.29013528 11.5 4.4375 C13.68103073 8.38696384 15.39406046 12.54952427 17.1875 16.6875 C17.68572266 17.79480469 18.18394531 18.90210938 18.69726562 20.04296875 C24.75882716 33.87681746 24.75882716 33.87681746 22.6796875 39.7578125 C22.24914062 40.35335937 21.81859375 40.94890625 21.375 41.5625 C20.68470703 42.5525 20.68470703 42.5525 19.98046875 43.5625 C18.61037608 45.29770971 17.17381513 46.92712747 15.6875 48.5625 C13.0368293 52.04623864 12.93032761 53.15212664 13.5 57.4375 C14.81738298 60.00148991 16.49265711 62.22187151 18.25 64.5 C18.6934375 65.09876953 19.136875 65.69753906 19.59375 66.31445312 C20.8770634 68.03749008 22.1825082 69.74050492 23.5 71.4375 C24.19867188 72.33855469 24.89734375 73.23960937 25.6171875 74.16796875 C34.48303877 84.85481437 49.30197999 94.11336239 62.5 98.4375 C67.2271673 97.80767244 69.28605753 94.58461044 72.125 91.0625 C72.61484375 90.47210938 73.1046875 89.88171875 73.609375 89.2734375 C75.70660658 86.72925492 77.67001495 84.18247757 79.5 81.4375 C84.9990035 80.78770965 88.59679958 82.04138105 93.4921875 84.46484375 C94.1235965 84.77321671 94.75500549 85.08158966 95.4055481 85.39930725 C97.40195526 86.37845471 99.38819656 87.37653482 101.375 88.375 C102.73117256 89.04223301 104.08793878 89.70826083 105.4453125 90.37304688 C115.27784321 95.21534321 115.27784321 95.21534321 116.5 96.4375 C117.24186151 104.4267778 116.74647461 111.90908413 111.9765625 118.5625 C105.78510506 125.45931335 97.82474614 129.73829091 88.6328125 130.9453125 C62.40384187 132.28444502 35.4357763 117.45572933 16.5 100.4375 C-1.1116753 84.19457916 -21.89810234 61.12876995 -23.73828125 36.2109375 C-24.0088408 23.82215826 -21.51858885 15.03382931 -13.5 5.49609375 C-9.02370093 0.88865311 -6.581736 0.00647809 0 0 Z " fill="#FBFEFB" transform="translate(117.5,98.5625)"/>
<path d="M0 0 C0.61875 0.19335938 1.2375 0.38671875 1.875 0.5859375 C31.62772236 10.14931254 56.05393397 29.45787832 71 57 C71.36855643 58.32402985 71.71133969 59.65628719 72 61 C70.824375 59.7934375 70.824375 59.7934375 69.625 58.5625 C67.28017144 56.01309583 67.28017144 56.01309583 65 55 C65 54.01 65 53.02 65 52 C64.01 52.33 63.02 52.66 62 53 C61.67 52.01 61.34 51.02 61 50 C61.66 50 62.32 50 63 50 C62.00864359 47.3726974 62.00864359 47.3726974 60 45 C56.37400578 44.58274322 56.37400578 44.58274322 53 45 C53 44.34 53 43.68 53 43 C53.66 42.67 54.32 42.34 55 42 C54.34 41.34 53.68 40.68 53 40 C52.67 39.01 52.34 38.02 52 37 C51.01 36.67 50.02 36.34 49 36 C48.01 36.495 48.01 36.495 47 37 C46.34 36.34 45.68 35.68 45 35 C45.66 35 46.32 35 47 35 C46.37967524 31.53514293 46.37967524 31.53514293 45 28 C42.50358872 26.48207356 42.50358872 26.48207356 40 26 C40 24.68 40 23.36 40 22 C39.07767578 21.99613281 39.07767578 21.99613281 38.13671875 21.9921875 C35.63262265 21.87237429 33.41638135 21.67987791 31 21 C29.3125 18.0625 29.3125 18.0625 28 15 C25.19683342 13.74143541 23.07094633 13 20 13 C19 12 18 11 17 10 C16.01 9.67 15.02 9.34 14 9 C13.01 8.01 13.01 8.01 12 7 C4.94813641 4.333889 -3.57726354 1.13244584 -11 3 C-12.02196992 2.02246356 -13.01979625 1.0194119 -14 0 C-19.30443333 -1.3780484 -24.62007704 -1.18395445 -30.0625 -1.1875 C-31.05572266 -1.19974609 -32.04894531 -1.21199219 -33.07226562 -1.22460938 C-34.02939453 -1.22654297 -34.98652344 -1.22847656 -35.97265625 -1.23046875 C-37.27601929 -1.23663208 -37.27601929 -1.23663208 -38.60571289 -1.24291992 C-41.18963677 -0.98075981 -42.70983898 -0.16602094 -45 1 C-46.32 1 -47.64 1 -49 1 C-49.33 1.66 -49.66 2.32 -50 3 C-50.99 2.34 -51.98 1.68 -53 1 C-53.804375 1.474375 -54.60875 1.94875 -55.4375 2.4375 C-58.55194186 3.80348327 -60.2364076 4.24045881 -63.5 4.5 C-67.57295273 4.84341929 -70.49628183 5.77812994 -74 8 C-74.66 8.99 -75.32 9.98 -76 11 C-76.66 10.34 -77.32 9.68 -78 9 C-78.495 9.4125 -78.99 9.825 -79.5 10.25 C-81.67808192 11.77465734 -83.66795858 12.82181127 -86.0625 13.9375 C-89.37684098 15.53668478 -90.86362719 16.9896565 -93 20 C-94.98387708 21.03161608 -96.98276656 22.03523618 -99 23 C-99.33 23.66 -99.66 24.32 -100 25 C-100.66 25 -101.32 25 -102 25 C-102.33 25.66 -102.66 26.32 -103 27 C-103.66 27 -104.32 27 -105 27 C-105 27.66 -105 28.32 -105 29 C-105.99 29.66 -106.98 30.32 -108 31 C-108 32.32 -108 33.64 -108 35 C-110 37 -110 37 -112.625 37.125 C-113.40875 37.08375 -114.1925 37.0425 -115 37 C-115 37.66 -115 38.32 -115 39 C-115.66 39 -116.32 39 -117 39 C-117.0928125 39.86625 -117.0928125 39.86625 -117.1875 40.75 C-118 43 -118 43 -120.5625 44.6875 C-123.18959904 46.68834648 -123.18959904 46.68834648 -123.2578125 49.11328125 C-123.21191228 50.67133881 -123.12135018 52.2288961 -122.98046875 53.78125 C-123.00378168 56.42959854 -123.47747695 57.83743542 -125 60 C-126.134375 60.12375 -127.26875 60.2475 -128.4375 60.375 C-129.613125 60.58125 -130.78875 60.7875 -132 61 C-134.01041003 63.93449408 -134.01041003 63.93449408 -135 67 C-135.66 66.67 -136.32 66.34 -137 66 C-128.69054509 47.89529362 -117.72499331 33.33878531 -102 21 C-101.21109375 20.34386719 -100.4221875 19.68773438 -99.609375 19.01171875 C-72.72343426 -1.71621461 -32.76532007 -10.29767202 0 0 Z " fill="#6ACC75" transform="translate(195,51)"/>
<path d="M0 0 C0 -0.66 0 -1.32 0 -2 C2.475 -1.01 2.475 -1.01 5 0 C4.7215625 1.3921875 4.7215625 1.3921875 4.4375 2.8125 C3.75876119 6.01343771 3.75876119 6.01343771 5 9 C4.9175 9.99 4.835 10.98 4.75 12 C4.63192525 16.6344339 6.80485445 20.23206866 8.90625 24.25390625 C10.14045644 27.35264598 10.19415583 29.69449693 10 33 C8.09643474 30.14465212 6.84515627 27.49279357 5.50390625 24.34375 C5.02759766 23.23902344 4.55128906 22.13429688 4.06054688 20.99609375 C3.06245391 18.6667764 2.06765624 16.33604425 1.07617188 14.00390625 C0.59857422 12.89917969 0.12097656 11.79445313 -0.37109375 10.65625 C-0.80349365 9.64369141 -1.23589355 8.63113281 -1.68139648 7.58789062 C-2.92124812 5.1545584 -3.83895816 3.64364774 -6 2 C-11.42621341 1.24373332 -17.90195828 0.81241734 -23.109375 2.80859375 C-30.13465447 8.26640495 -34.35276449 17.48108799 -36 26 C-36.48234812 29.99592319 -36.79971822 33.98055187 -37 38 C-37.33 38 -37.66 38 -38 38 C-38.24970296 35.27131829 -38.47531211 32.54413986 -38.6875 29.8125 C-38.79674805 28.65911133 -38.79674805 28.65911133 -38.90820312 27.48242188 C-39.26357864 22.6116869 -38.92989481 20.08905223 -36 16 C-35.21438976 13.6469645 -34.57275536 11.28895746 -33.94140625 8.890625 C-33.47541016 7.95476562 -33.47541016 7.95476562 -33 7 C-30.95703125 6.3515625 -30.95703125 6.3515625 -29 6 C-28.566875 5.071875 -28.566875 5.071875 -28.125 4.125 C-26.3826631 0.8339192 -24.47520834 0.28033991 -21 -1 C-13.64969778 -2.40775019 -7.20246043 -1.89045057 0 0 Z " fill="#52C65F" transform="translate(131,98)"/>
<path d="M0 0 C-1 3 -1 3 -4 4.5625 C-4.99 5.036875 -5.98 5.51125 -7 6 C-7.33 6.66 -7.66 7.32 -8 8 C-8.66 8 -9.32 8 -10 8 C-10.33 8.66 -10.66 9.32 -11 10 C-11.66 10 -12.32 10 -13 10 C-13 10.66 -13 11.32 -13 12 C-13.99 12.66 -14.98 13.32 -16 14 C-16 15.32 -16 16.64 -16 18 C-18 20 -18 20 -20.625 20.125 C-21.40875 20.08375 -22.1925 20.0425 -23 20 C-23 20.66 -23 21.32 -23 22 C-23.66 22 -24.32 22 -25 22 C-25.0928125 22.86625 -25.0928125 22.86625 -25.1875 23.75 C-26 26 -26 26 -28.5625 27.6875 C-31.18959904 29.68834648 -31.18959904 29.68834648 -31.2578125 32.11328125 C-31.21191228 33.67133881 -31.12135018 35.2288961 -30.98046875 36.78125 C-31.00378168 39.42959854 -31.47747695 40.83743542 -33 43 C-34.134375 43.12375 -35.26875 43.2475 -36.4375 43.375 C-37.613125 43.58125 -38.78875 43.7875 -40 44 C-42.01041003 46.93449408 -42.01041003 46.93449408 -43 50 C-43.66 49.67 -44.32 49.34 -45 49 C-37.80455569 33.32250876 -20.13368503 0 0 0 Z " fill="#56C864" transform="translate(103,68)"/>
<path d="M0 0 C5.25771248 0.45165372 7.98459396 4.83740431 11.25390625 8.5390625 C16.68929203 15.16301199 23.19055641 23.50039217 25 32 C24.21625 31.195625 23.4325 30.39125 22.625 29.5625 C20.28017144 27.01309583 20.28017144 27.01309583 18 26 C18 25.01 18 24.02 18 23 C17.01 23.33 16.02 23.66 15 24 C14.67 23.01 14.34 22.02 14 21 C14.66 21 15.32 21 16 21 C15.00864359 18.3726974 15.00864359 18.3726974 13 16 C9.37400578 15.58274322 9.37400578 15.58274322 6 16 C6 15.34 6 14.68 6 14 C6.66 13.67 7.32 13.34 8 13 C7.34 12.34 6.68 11.68 6 11 C5.67 10.01 5.34 9.02 5 8 C4.01 7.67 3.02 7.34 2 7 C1.01 7.495 1.01 7.495 0 8 C-0.66 7.34 -1.32 6.68 -2 6 C-1.34 6 -0.68 6 0 6 C-0.2784375 4.7934375 -0.2784375 4.7934375 -0.5625 3.5625 C-0.706875 2.716875 -0.85125 1.87125 -1 1 C-0.67 0.67 -0.34 0.34 0 0 Z " fill="#5BCA68" transform="translate(242,80)"/>
<path d="M0 0 C0.78761719 0.07863281 1.57523438 0.15726562 2.38671875 0.23828125 C3.02222656 0.38652344 3.65773437 0.53476562 4.3125 0.6875 C4.8075 1.6775 4.8075 1.6775 5.3125 2.6875 C4.054375 2.749375 2.79625 2.81125 1.5 2.875 C-7.09920319 3.72761221 -15.38667417 6.38735266 -23.6875 8.6875 C-25.84788175 9.28398159 -28.00862856 9.87882359 -30.17114258 10.4675293 C-32.01019821 10.96871389 -33.84697953 11.47822263 -35.68359375 11.98828125 C-38.6875 12.6875 -38.6875 12.6875 -42.6875 12.6875 C-42.37856068 11.0618193 -42.0652305 9.43697252 -41.75 7.8125 C-41.57597656 6.90757812 -41.40195312 6.00265625 -41.22265625 5.0703125 C-40.6875 2.6875 -40.6875 2.6875 -39.6875 0.6875 C-38.6975 0.6875 -37.7075 0.6875 -36.6875 0.6875 C-36.3575 3.6575 -36.0275 6.6275 -35.6875 9.6875 C-34.64916016 9.23890625 -34.64916016 9.23890625 -33.58984375 8.78125 C-30.49770861 7.615977 -27.47821918 6.88713761 -24.25 6.1875 C-20.90540216 5.46092857 -17.70754695 4.69430381 -14.46484375 3.59375 C-11.6875 2.6875 -11.6875 2.6875 -8.6875 2.6875 C-8.6875 2.0275 -8.6875 1.3675 -8.6875 0.6875 C-5.62049749 -0.24593555 -3.18030191 -0.35219872 0 0 Z " fill="#35AD48" transform="translate(100.6875,257.3125)"/>
<path d="M0 0 C2.475 0.99 2.475 0.99 5 2 C4.814375 2.928125 4.62875 3.85625 4.4375 4.8125 C3.75876119 8.01343771 3.75876119 8.01343771 5 11 C4.9175 11.99 4.835 12.98 4.75 14 C4.63192525 18.6344339 6.80485445 22.23206866 8.90625 26.25390625 C10.14045644 29.35264598 10.19415583 31.69449693 10 35 C7.02408897 30.53613346 5.08601369 25.6548106 2.9375 20.75 C2.47794922 19.72519531 2.01839844 18.70039062 1.54492188 17.64453125 C-0.76025446 12.38426102 -2.60204519 7.75004092 -3 2 C-2.01 1.67 -1.02 1.34 0 1 C0 0.67 0 0.34 0 0 Z " fill="#4CC95B" transform="translate(131,96)"/>
<path d="M0 0 C6.12572201 9.18858302 5.28883958 22.71889527 5.3125 33.3125 C5.31781738 34.49191162 5.32313477 35.67132324 5.32861328 36.88647461 C5.2706647 44.1254724 4.56624421 50.9308325 3 58 C2.67 58 2.34 58 2 58 C2.0721875 56.99324219 2.144375 55.98648438 2.21875 54.94921875 C2.7620012 46.92685555 3.12406388 38.91632092 3.1875 30.875 C3.20039063 30.09471436 3.21328125 29.31442871 3.2265625 28.51049805 C3.23495731 23.63573589 2.40361915 19.70185732 1 15 C0.72433032 12.36033278 0.51572333 9.71278937 0.375 7.0625 C0.33632813 6.37865234 0.29765625 5.69480469 0.2578125 4.99023438 C0.16477588 3.32720487 0.08136213 1.66364153 0 0 Z " fill="#5FBD6C" transform="translate(274,129)"/>
<path d="M0 0 C0.67224609 -0.00322266 1.34449219 -0.00644531 2.03710938 -0.00976562 C5.70708778 0.03032351 7.30992617 0.22745078 10.4375 2.3125 C10.1075 2.9725 9.7775 3.6325 9.4375 4.3125 C8.90640625 3.99539062 8.3753125 3.67828125 7.828125 3.3515625 C4.89214152 2.0754651 2.37575671 1.89542979 -0.8125 1.6875 C-1.89015625 1.61273438 -2.9678125 1.53796875 -4.078125 1.4609375 C-5.30789062 1.38746094 -5.30789062 1.38746094 -6.5625 1.3125 C-6.5625 1.9725 -6.5625 2.6325 -6.5625 3.3125 C-7.2225 3.3125 -7.8825 3.3125 -8.5625 3.3125 C-8.789375 3.89 -9.01625 4.4675 -9.25 5.0625 C-10.89288023 7.8788661 -12.95783227 9.39327114 -15.5625 11.3125 C-16.2225 10.9825 -16.8825 10.6525 -17.5625 10.3125 C-16.65127273 9.20384015 -15.73323341 8.10077781 -14.8125 7 C-14.30203125 6.38511719 -13.7915625 5.77023438 -13.265625 5.13671875 C-8.97690248 0.54306412 -6.38572801 -0.08114806 0 0 Z " fill="#E0FBE4" transform="translate(117.5625,98.6875)"/>
<path d="M0 0 C0.33 1.98 0.66 3.96 1 6 C0.49597656 5.51144531 -0.00804688 5.02289063 -0.52734375 4.51953125 C-3.95354482 2.41401432 -6.57119659 2.63677962 -10.5625 2.6875 C-11.23474609 2.68427734 -11.90699219 2.68105469 -12.59960938 2.67773438 C-16.26958778 2.71782351 -17.87242617 2.91495078 -21 5 C-21 4.01 -21 3.02 -21 2 C-14.97560261 -2.01626492 -6.9052568 -1.38105136 0 0 Z " fill="#5EC66A" transform="translate(128,97)"/>
<path d="M0 0 C0.66 0 1.32 0 2 0 C2.33 1.65 2.66 3.3 3 5 C3.66 5 4.32 5 5 5 C5.42152344 6.14339844 5.84304687 7.28679687 6.27734375 8.46484375 C6.83058521 9.95578259 7.38397847 11.44666511 7.9375 12.9375 C8.21529297 13.69224609 8.49308594 14.44699219 8.77929688 15.22460938 C9.91753451 18.88779139 9.91753451 18.88779139 12 22 C12.04080783 23.99958364 12.04254356 26.00045254 12 28 C8.96897016 23.45345524 7.0418459 18.4418822 4.875 13.4375 C4.40707031 12.37080078 3.93914062 11.30410156 3.45703125 10.20507812 C3.01488281 9.18736328 2.57273438 8.16964844 2.1171875 7.12109375 C1.71097168 6.1870874 1.30475586 5.25308105 0.88623047 4.29077148 C0 2 0 2 0 0 Z " fill="#5FC26E" transform="translate(129,103)"/>
<path d="M0 0 C0.33 0 0.66 0 1 0 C0.74737455 6.39142398 0.31770776 10.96267428 -4 16 C-5.3303125 17.0209375 -5.3303125 17.0209375 -6.6875 18.0625 C-9.22386494 19.82472262 -9.22386494 19.82472262 -9.8125 22.75 C-9.874375 23.4925 -9.93625 24.235 -10 25 C-10.33 25 -10.66 25 -11 25 C-11.31472378 21.43485028 -11.37842346 19.56538801 -9.35546875 16.54296875 C-8.28232422 15.37701172 -8.28232422 15.37701172 -7.1875 14.1875 C-3.33691683 9.69628884 -1.33048442 5.73771405 0 0 Z " fill="#5EBF6B" transform="translate(141,131)"/>
<path d="M0 0 C0.84062397 3.09773244 1.08935201 5.78332751 1 9 C0.01 9.495 0.01 9.495 -1 10 C-1.57876361 12.31505445 -2.06480221 14.65371627 -2.5 17 C-2.93519779 19.34628373 -3.42123639 21.68494555 -4 24 C-4.66 24.33 -5.32 24.66 -6 25 C-5.76919007 16.08234348 -2.99681008 8.29375483 0 0 Z " fill="#62C370" transform="translate(57,119)"/>
<path d="M0 0 C0.66 0 1.32 0 2 0 C0.61507965 4.15476105 -2.27948168 5.49881044 -5.8125 7.75 C-6.44220703 8.17410156 -7.07191406 8.59820312 -7.72070312 9.03515625 C-12.46787047 12.093667 -12.46787047 12.093667 -15.21362305 11.61035156 C-16.09787964 11.30822754 -16.09787964 11.30822754 -17 11 C-16.67 10.01 -16.34 9.02 -16 8 C-14.03093817 7.47491685 -12.05815038 6.95847262 -10.06640625 6.52734375 C-6.5065042 5.61886213 -3.88716094 3.88716094 -1.3125 1.3125 C-0.879375 0.879375 -0.44625 0.44625 0 0 Z " fill="#3AAD4E" transform="translate(233,252)"/>
<path d="M0 0 C3 1 3 1 4.1875 2.5625 C6.06260507 8.18781522 4.95485909 14.27084547 4 20 C3.34 20 2.68 20 2 20 C2 21.32 2 22.64 2 24 C1.34 24 0.68 24 0 24 C0.22816406 23.21496094 0.45632812 22.42992187 0.69140625 21.62109375 C2.90124023 13.54479469 3.54791716 7.80541774 0 0 Z " fill="#4DB260" transform="translate(65,220)"/>
<path d="M0 0 C3.9374409 2.2242582 7.3373337 4.79850633 10.8125 7.6875 C11.78832031 8.49574219 12.76414063 9.30398437 13.76953125 10.13671875 C14.50558594 10.75160156 15.24164063 11.36648437 16 12 C13 13 13 13 10.9375 12.125 C9.9784375 11.568125 9.9784375 11.568125 9 11 C8.34 10.67 7.68 10.34 7 10 C7 8.68 7 7.36 7 6 C5.35 5.67 3.7 5.34 2 5 C2 4.01 2 3.02 2 2 C1.34 2 0.68 2 0 2 C0 1.34 0 0.68 0 0 Z " fill="#6ACA75" transform="translate(228,67)"/>
<path d="M0 0 C2.35082212 2.89642841 3.83519406 5.65356331 5.1875 9.125 C5.53167969 9.99382812 5.87585938 10.86265625 6.23046875 11.7578125 C7 14 7 14 7 16 C6.01 16 5.02 16 4 16 C3.01 13.36 2.02 10.72 1 8 C0.67 8 0.34 8 0 8 C0 5.36 0 2.72 0 0 Z " fill="#5CC76F" transform="translate(267,112)"/>
<path d="M0 0 C1.65 0 3.3 0 5 0 C4.67 0.99 4.34 1.98 4 3 C4 2.34 4 1.68 4 1 C3.01 1.495 3.01 1.495 2 2 C2.04125 2.928125 2.0825 3.85625 2.125 4.8125 C2 8 2 8 0 11 C-0.66 11 -1.32 11 -2 11 C-2 12.65 -2 14.3 -2 16 C-2.66 16 -3.32 16 -4 16 C-4.75 14.3125 -4.75 14.3125 -5 12 C-4.38125 11.236875 -3.7625 10.47375 -3.125 9.6875 C-0.55267535 6.43426588 -0.31957571 4.07459035 0 0 Z " fill="#2CB73F" transform="translate(258,216)"/>
<path d="M0 0 C-0.99 0.33 -1.98 0.66 -3 1 C-3.87398437 0.53980469 -3.87398437 0.53980469 -4.765625 0.0703125 C-7.83446968 -1.39972848 -10.36817399 -1.19263652 -13.75 -1.125 C-14.92046875 -1.10695313 -16.0909375 -1.08890625 -17.296875 -1.0703125 C-18.18890625 -1.04710937 -19.0809375 -1.02390625 -20 -1 C-14.07571835 -6.92428165 -6.11376116 -3.99266035 0 0 Z " fill="#DDFAE1" transform="translate(110,264)"/>
<path d="M0 0 C0 3.47684256 -0.66401429 5.7936343 -2 9 C-5.2 12 -5.2 12 -8 12 C-8 12.66 -8 13.32 -8 14 C-8.66 13.67 -9.32 13.34 -10 13 C-8.71053695 11.20674674 -7.41835648 9.41544722 -6.125 7.625 C-5.04605469 6.12839844 -5.04605469 6.12839844 -3.9453125 4.6015625 C-2 2 -2 2 0 0 Z " fill="#64C870" transform="translate(78,86)"/>
<path d="M0 0 C4.75 1.875 4.75 1.875 7 3 C7.33 3.99 7.66 4.98 8 6 C8.99 6.33 9.98 6.66 11 7 C13.07530387 9.92079805 14 11.37546731 14 15 C11.66265901 12.69152056 9.33081534 10.37756659 7 8.0625 C6.33226563 7.40314453 5.66453125 6.74378906 4.9765625 6.06445312 C4.34492187 5.43603516 3.71328125 4.80761719 3.0625 4.16015625 C2.47597656 3.57886963 1.88945313 2.99758301 1.28515625 2.39868164 C0 1 0 1 0 0 Z " fill="#E4FDE8" transform="translate(121,185)"/>
<path d="M0 0 C0.66 0.33 1.32 0.66 2 1 C1.79503906 1.58265625 1.59007813 2.1653125 1.37890625 2.765625 C-0.83577571 9.50503996 -1.64768878 15.92947835 -2 23 C-2.33 23 -2.66 23 -3 23 C-3.27743433 20.29199966 -3.52249031 17.58727242 -3.75 14.875 C-3.83121094 14.11445312 -3.91242188 13.35390625 -3.99609375 12.5703125 C-4.42991694 6.97881359 -3.57649022 4.3389203 0 0 Z " fill="#63C470" transform="translate(96,113)"/>
<path d="M0 0 C-1 3 -1 3 -4 4.5625 C-4.99 5.036875 -5.98 5.51125 -7 6 C-7.33 6.66 -7.66 7.32 -8 8 C-10.7696959 8.72886734 -13.12862585 9 -16 9 C-6.41747573 0 -6.41747573 0 0 0 Z " fill="#5ECC6D" transform="translate(103,68)"/>
<path d="M0 0 C1.2065625 0.0309375 1.2065625 0.0309375 2.4375 0.0625 C2.4375 0.7225 2.4375 1.3825 2.4375 2.0625 C-6.78801253 6.65475513 -6.78801253 6.65475513 -12.5625 6.0625 C-11.2618321 3.4611642 -10.26169978 3.42061992 -7.5625 2.5 C-0.33211784 0.00810044 -0.33211784 0.00810044 0 0 Z " fill="#37AD4C" transform="translate(211.5625,264.9375)"/>
<path d="M0 0 C0.99 0 1.98 0 3 0 C3.33 2.97 3.66 5.94 4 9 C2.35 9.33 0.7 9.66 -1 10 C-0.67 6.7 -0.34 3.4 0 0 Z " fill="#27AF3B" transform="translate(61,258)"/>
<path d="M0 0 C1.65 0 3.3 0 5 0 C4.44225728 3.23490776 3.62788492 4.97855006 1 7 C0.01 7 -0.98 7 -2 7 C-2 5.35 -2 3.7 -2 2 C-1.34 2 -0.68 2 0 2 C0 1.34 0 0.68 0 0 Z " fill="#32B143" transform="translate(242,240)"/>
<path d="M0 0 C0.66 0 1.32 0 2 0 C2.33951619 1.56116819 2.67132544 3.12401338 3 4.6875 C3.185625 5.55761719 3.37125 6.42773438 3.5625 7.32421875 C3.9994423 9.9965891 4.29392564 12.30415074 4 15 C3.01 15.66 2.02 16.32 1 17 C1.01160156 16.28972656 1.02320312 15.57945312 1.03515625 14.84765625 C1.04417969 13.92855469 1.05320312 13.00945312 1.0625 12.0625 C1.07990234 10.68771484 1.07990234 10.68771484 1.09765625 9.28515625 C1.25949049 7.03406673 1.25949049 7.03406673 0 6 C-0.04080783 4.00041636 -0.04254356 1.99954746 0 0 Z " fill="#2AB742" transform="translate(68,218)"/>
<path d="M0 0 C2.37662822 0.0876873 4.74983127 0.19463114 7.125 0.3125 C7.79015625 0.33505859 8.4553125 0.35761719 9.140625 0.38085938 C13.75917371 0.62989877 17.01375105 1.68400178 21 4 C17.95501389 4.95827504 15.97726069 4.99431517 12.890625 4.22265625 C11.75947266 3.94711914 11.75947266 3.94711914 10.60546875 3.66601562 C9.82816406 3.46685547 9.05085937 3.26769531 8.25 3.0625 C7.06083984 2.76956055 7.06083984 2.76956055 5.84765625 2.47070312 C3.89637115 1.98875921 1.94789217 1.49547912 0 1 C0 0.67 0 0.34 0 0 Z " fill="#52B563" transform="translate(129,272)"/>
<path d="M0 0 C0.66 0 1.32 0 2 0 C2.46733615 4.57989423 2.17261016 7.24854513 -0.5 10.9375 C-1.325 11.948125 -2.15 12.95875 -3 14 C-3.33 12.68 -3.66 11.36 -4 10 C-3.34 10 -2.68 10 -2 10 C-1.93941406 9.36191406 -1.87882812 8.72382813 -1.81640625 8.06640625 C-1.73261719 7.24011719 -1.64882813 6.41382813 -1.5625 5.5625 C-1.48128906 4.73878906 -1.40007812 3.91507813 -1.31640625 3.06640625 C-1 1 -1 1 0 0 Z " fill="#3DB453" transform="translate(260,217)"/>
<path d="M0 0 C-2.6226232 1.33819498 -5.24786599 2.6707151 -7.875 4 C-8.99455078 4.57234375 -8.99455078 4.57234375 -10.13671875 5.15625 C-10.85214844 5.5171875 -11.56757812 5.878125 -12.3046875 6.25 C-13.2944458 6.75273438 -13.2944458 6.75273438 -14.30419922 7.265625 C-16 8 -16 8 -18 8 C-17 5 -17 5 -14.19921875 3.359375 C-13.04035156 2.82828125 -11.88148437 2.2971875 -10.6875 1.75 C-8.96080078 0.93789063 -8.96080078 0.93789063 -7.19921875 0.109375 C-3.90872843 -1.03164972 -3.13976945 -0.99307505 0 0 Z " fill="#E3FDE4" transform="translate(122,56)"/>
<path d="M0 0 C2.31 0.66 4.62 1.32 7 2 C7 2.99 7 3.98 7 5 C9.31 5 11.62 5 14 5 C14.33 5.66 14.66 6.32 15 7 C12.87213201 6.79920119 10.74754018 6.56342937 8.625 6.3125 C6.84996094 6.12107422 6.84996094 6.12107422 5.0390625 5.92578125 C2 5 2 5 0.5859375 2.41796875 C0.39257812 1.62003906 0.19921875 0.82210938 0 0 Z " fill="#35B048" transform="translate(121,266)"/>
<path d="M0 0 C0.80824219 0.37253906 1.61648437 0.74507812 2.44921875 1.12890625 C3.51785156 1.60199219 4.58648437 2.07507813 5.6875 2.5625 C6.74324219 3.03816406 7.79898438 3.51382813 8.88671875 4.00390625 C12.16633893 5.05322011 13.75895539 5.00418265 17 4 C16.67 4.99 16.34 5.98 16 7 C9.68750771 7.46188968 5.19849651 5.46566434 0 2 C0 1.34 0 0.68 0 0 Z " fill="#E0FBE2" transform="translate(168,192)"/>
<path d="M0 0 C3 1 3 1 4 3 C4.66 3.309375 5.32 3.61875 6 3.9375 C8 5 8 5 9 8 C8.01 9.485 8.01 9.485 7 11 C5.83051998 9.35616456 4.6644855 7.70987731 3.5 6.0625 C2.8503125 5.14597656 2.200625 4.22945312 1.53125 3.28515625 C0 1 0 1 0 0 Z " fill="#4DBC5D" transform="translate(131,156)"/>
<path d="M0 0 C0.33 0 0.66 0 1 0 C0.67 2.64 0.34 5.28 0 8 C0.99 7.67 1.98 7.34 3 7 C5.33299825 6.96045766 7.66708189 6.95598268 10 7 C6.17482487 9.39073445 2.40334476 9.55966552 -2 10 C-1.34 6.7 -0.68 3.4 0 0 Z " fill="#4DAF5F" transform="translate(60,260)"/>
<path d="M0 0 C3.52773771 0.50396253 4.97220555 1.07331733 7.5 3.5 C6.283125 3.2525 5.06625 3.005 3.8125 2.75 C0.24303912 2.27449455 -0.28546053 2.36144326 -3.5 4.4375 C-4.49 5.4584375 -4.49 5.4584375 -5.5 6.5 C-6.16 6.17 -6.82 5.84 -7.5 5.5 C-5.23191499 1.87106398 -4.33795924 0.61970846 0 0 Z " fill="#E4FCE7" transform="translate(200.5,179.5)"/>
<path d="M0 0 C2.64 0.66 5.28 1.32 8 2 C8 2.99 8 3.98 8 5 C7.443125 4.79375 6.88625 4.5875 6.3125 4.375 C3.340462 3.89304789 1.68020059 4.73434972 -1 6 C-0.67 4.02 -0.34 2.04 0 0 Z " fill="#2BB640" transform="translate(184,227)"/>
<path d="M0 0 C0.33 0 0.66 0 1 0 C1.0814222 2.22855574 1.13938079 4.45797655 1.1875 6.6875 C1.22230469 7.92886719 1.25710937 9.17023438 1.29296875 10.44921875 C0.9846829 14.18564321 0.18088273 16.00629483 -2 19 C-2.66 18.67 -3.32 18.34 -4 18 C-3.79503906 17.45472656 -3.59007812 16.90945312 -3.37890625 16.34765625 C-1.41324021 10.84567235 -0.46218398 5.8235181 0 0 Z " fill="#5DBD6B" transform="translate(234,197)"/>
<path d="M0 0 C3 1 3 1 4.5625 3 C6.42590285 6.88884074 7.21820365 10.77829972 8 15 C5.51372483 11.9377256 3.90010596 8.8542946 2.3125 5.25 C1.87550781 4.26515625 1.43851562 3.2803125 0.98828125 2.265625 C0.66214844 1.51796875 0.33601563 0.7703125 0 0 Z " fill="#E5FCE3" transform="translate(264,105)"/>
<path d="M0 0 C1.8871875 0.061875 1.8871875 0.061875 3.8125 0.125 C2.625 1.625 2.625 1.625 0.8125 3.125 C-1.875 3.3125 -1.875 3.3125 -4.1875 3.125 C-4.5175 3.785 -4.8475 4.445 -5.1875 5.125 C-5.8475 4.135 -6.5075 3.145 -7.1875 2.125 C-4.09861478 0.06574319 -3.47814073 -0.1140374 0 0 Z " fill="#5FCB6A" transform="translate(150.1875,48.875)"/>
<path d="M0 0 C0.33 0.99 0.66 1.98 1 3 C-1.24844471 6.3310292 -3.68270834 8.74898066 -7 11 C-7.66 10.67 -8.32 10.34 -9 10 C-6.03 6.7 -3.06 3.4 0 0 Z " fill="#DCFAE1" transform="translate(254,234)"/>
<path d="M0 0 C0.66 0.33 1.32 0.66 2 1 C0.92456217 1.98783194 -0.16073217 2.96493943 -1.25 3.9375 C-2.15492188 4.75541016 -2.15492188 4.75541016 -3.078125 5.58984375 C-5.08467305 7.06212799 -6.57002449 7.57529189 -9 8 C-9 7.34 -9 6.68 -9 6 C-8.34 6 -7.68 6 -7 6 C-6.67 5.01 -6.34 4.02 -6 3 C-3.0625 1.25 -3.0625 1.25 0 0 Z " fill="#E4FDE7" transform="translate(226,217)"/>
<path d="M0 0 C0.99 0.33 1.98 0.66 3 1 C1.71372289 2.17260611 0.42080217 3.3379283 -0.875 4.5 C-1.59429687 5.1496875 -2.31359375 5.799375 -3.0546875 6.46875 C-5 8 -5 8 -7 8 C-7.33 8.66 -7.66 9.32 -8 10 C-8 8.68 -8 7.36 -8 6 C-7.195625 5.731875 -6.39125 5.46375 -5.5625 5.1875 C-4.716875 4.795625 -3.87125 4.40375 -3 4 C-2.67 3.01 -2.34 2.02 -2 1 C-1.34 0.67 -0.68 0.34 0 0 Z " fill="#E1FAE1" transform="translate(89,73)"/>
<path d="M0 0 C0.144375 0.598125 0.28875 1.19625 0.4375 1.8125 C0.8872439 3.56150404 1.42892341 5.28677023 2 7 C0.68 7 -0.64 7 -2 7 C-2.66 6.34 -3.32 5.68 -4 5 C-3 2 -3 2 0 0 Z " fill="#24B13A" transform="translate(111,256)"/>
<path d="M0 0 C0.66 0 1.32 0 2 0 C3.37432457 3.81756824 2.67975039 7.07255329 2 11 C1.67 9.68 1.34 8.36 1 7 C0.34 7 -0.32 7 -1 7 C-1.04254356 5.00045254 -1.04080783 2.99958364 -1 1 C-0.67 0.67 -0.34 0.34 0 0 Z " fill="#33BB41" transform="translate(58,196)"/>
<path d="M0 0 C0.99 0 1.98 0 3 0 C2.67 2.31 2.34 4.62 2 7 C0.68 7 -0.64 7 -2 7 C-2 5.35 -2 3.7 -2 2 C-1.34 2 -0.68 2 0 2 C0 1.34 0 0.68 0 0 Z " fill="#2AB740" transform="translate(221,224)"/>
<path d="M0 0 C0.6875 1.625 0.6875 1.625 1 4 C-1.33333333 9.66666667 -1.33333333 9.66666667 -4 11 C-4 9.35 -4 7.7 -4 6 C-3.34 6 -2.68 6 -2 6 C-1.34 4.02 -0.68 2.04 0 0 Z " fill="#4BC557" transform="translate(62,112)"/>
<path d="M0 0 C0.66 0 1.32 0 2 0 C2 1.32 2 2.64 2 4 C2.66 4 3.32 4 4 4 C4 4.66 4 5.32 4 6 C2.02 6.99 2.02 6.99 0 8 C-0.66 7.34 -1.32 6.68 -2 6 C-1.34 6 -0.68 6 0 6 C-0.2784375 4.7934375 -0.2784375 4.7934375 -0.5625 3.5625 C-0.706875 2.716875 -0.85125 1.87125 -1 1 C-0.67 0.67 -0.34 0.34 0 0 Z " fill="#50CB5E" transform="translate(242,80)"/>
<path d="M0 0 C0.66 0 1.32 0 2 0 C1.17812739 4.38332057 0.09845718 8.67940177 -1 13 C-2.30102931 8.67941758 -1.72449924 5.41944536 -1 1 C-0.67 0.67 -0.34 0.34 0 0 Z " fill="#38B24A" transform="translate(65,244)"/>
<path d="M0 0 C-2.52956528 3.0916909 -5.22454612 3.90931332 -9 5 C-9.33 4.01 -9.66 3.02 -10 2 C-6.49223216 0.39644899 -3.85645121 -0.22036864 0 0 Z " fill="#38B34D" transform="translate(218,227)"/>
<path d="M0 0 C4.21878192 -0.19622241 7.17010894 0.19769832 11 2 C10.67 2.66 10.34 3.32 10 4 C5.78087253 3.5205537 3.20336822 2.83374881 0 0 Z " fill="#5AB967" transform="translate(173,194)"/>
<path d="M0 0 C1.93166016 0.01740234 1.93166016 0.01740234 3.90234375 0.03515625 C5.19269531 0.04417969 6.48304687 0.05320312 7.8125 0.0625 C8.81152344 0.07410156 9.81054688 0.08570312 10.83984375 0.09765625 C10.83984375 0.42765625 10.83984375 0.75765625 10.83984375 1.09765625 C10.00839844 1.14664063 9.17695312 1.195625 8.3203125 1.24609375 C7.23363281 1.32085937 6.14695312 1.395625 5.02734375 1.47265625 C3.94839844 1.54226562 2.86945313 1.611875 1.7578125 1.68359375 C-1.34641811 1.90961358 -1.34641811 1.90961358 -4.16015625 4.09765625 C-4.16015625 -0.03178644 -4.14653035 0.12813753 0 0 Z " fill="#77C97F" transform="translate(111.16015625,97.90234375)"/>
<path d="M0 0 C2.86724686 0.57344937 3.8614515 0.8614515 6 3 C6.125 5.625 6.125 5.625 6 8 C3.33264727 5.51047079 1.44253657 3.36591866 0 0 Z " fill="#E4FDEB" transform="translate(254,90)"/>
<path d="M0 0 C1 4 1 4 -0.3125 6.25 C-1.1478125 7.11625 -1.1478125 7.11625 -2 8 C-2.66 8 -3.32 8 -4 8 C-4 8.66 -4 9.32 -4 10 C-4.66 9.67 -5.32 9.34 -6 9 C-4.02 6.03 -2.04 3.06 0 0 Z " fill="#DDFCE3" transform="translate(261,224)"/>
<path d="M0 0 C1.32 0.33 2.64 0.66 4 1 C4 1.66 4 2.32 4 3 C4.66 3 5.32 3 6 3 C6 3.66 6 4.32 6 5 C4.68 5.33 3.36 5.66 2 6 C0 3 0 3 0 0 Z " fill="#56CC64" transform="translate(224,66)"/>
<path d="M0 0 C3.3 1.65 6.6 3.3 10 5 C9.34 5.66 8.68 6.32 8 7 C6.66144944 6.21718695 5.32926356 5.42348123 4 4.625 C3.2575 4.18414062 2.515 3.74328125 1.75 3.2890625 C1.1725 2.86367188 0.595 2.43828125 0 2 C0 1.34 0 0.68 0 0 Z " fill="#72CA7A" transform="translate(218,61)"/>
<path d="M0 0 C2.25245881 2.68841859 3.88213958 4.64641875 5 8 C1.125 6.125 1.125 6.125 0 5 C-0.04063832 3.33382885 -0.042721 1.66611905 0 0 Z " fill="#54BC63" transform="translate(101,158)"/>
<path d="M0 0 C2.97 0.495 2.97 0.495 6 1 C6.33 1.99 6.66 2.98 7 4 C5.68 4.33 4.36 4.66 3 5 C2.67 4.01 2.34 3.02 2 2 C1.34 2 0.68 2 0 2 C0 1.34 0 0.68 0 0 Z " fill="#2FB740" transform="translate(154,216)"/>
<path d="M0 0 C6.75 0.75 6.75 0.75 9 3 C6 4 6 4 2.8125 2.5625 C1.884375 2.046875 0.95625 1.53125 0 1 C0 0.67 0 0.34 0 0 Z " fill="#51B761" transform="translate(221,188)"/>
<path d="M0 0 C2.0625 0.4375 2.0625 0.4375 4 1 C4 1.99 4 2.98 4 4 C2.68 4 1.36 4 0 4 C-0.33 3.01 -0.66 2.02 -1 1 C-0.67 0.67 -0.34 0.34 0 0 Z " fill="#35BE47" transform="translate(153,177)"/>
<path d="M0 0 C3.0916909 2.52956528 3.90931332 5.22454612 5 9 C2.5 6.75 2.5 6.75 0 4 C0 2.68 0 1.36 0 0 Z " fill="#62C373" transform="translate(262,103)"/>
<path d="M0 0 C0.99 0.33 1.98 0.66 3 1 C0.525 4.465 0.525 4.465 -2 8 C-2.33 7.01 -2.66 6.02 -3 5 C-1.5625 2.3125 -1.5625 2.3125 0 0 Z " fill="#5BC366" transform="translate(104,100)"/>
</svg>
